<svg xmlns="http://www.w3.org/2000/svg" xmlns:xlink="http://www.w3.org/1999/xlink" width="414" height="185.375" viewBox="0 0 414 185.375">
  <defs>
    <linearGradient id="linear-gradient" x1="0.761" y1="0.242" x2="0.256" y2="0.846" gradientUnits="objectBoundingBox">
      <stop offset="0" stop-color="#11a6ea"/>
      <stop offset="1" stop-color="#0056a9"/>
    </linearGradient>
  </defs>
  <g id="Group_17550" data-name="Group 17550" transform="translate(1586 13850.505)">
    <g id="Group_17549" data-name="Group 17549" transform="translate(-1463 -13850.505)">
      <g id="Group_18728" data-name="Group 18728" transform="translate(0 0)">
        <g id="Group_18727" data-name="Group 18727" transform="translate(134.578 55.704)">
          <g id="Group_18726" data-name="Group 18726" transform="translate(2.605 7.082)">
            <g id="Group_18724" data-name="Group 18724" transform="translate(0.016)">
              <path id="Path_26708" data-name="Path 26708" d="M.4,2.1q-.059.14-.114.281t-.1.285q-.05.143-.1.287T0,3.246l1.616-.084h.007l.005,0,0,0a.014.014,0,0,0,0-.006.029.029,0,0,0,0-.006V0Q1.45.237,1.28.486T.955,1Q.8,1.26.661,1.536T.4,2.1Z" transform="translate(0.971 8.51)" fill="#1429a9"/>
              <path id="Path_26709" data-name="Path 26709" d="M2.293,6.435c.118-.1.388-.27.727-.478s.744-.448,1.135-.677.765-.444,1.045-.6L5.674,4.4,2.6,5.38V2.166L4.22,2.152a2,2,0,0,1,.335.024,1.448,1.448,0,0,1,.291.077,1.165,1.165,0,0,1,.248.131,1.1,1.1,0,0,1,.2.183,1.3,1.3,0,0,1,.159.23,1.5,1.5,0,0,1,.114.271,1.914,1.914,0,0,1,.068.312,2.593,2.593,0,0,1,.023.352q0,.106-.008.206t-.022.192q-.015.093-.037.179a1.717,1.717,0,0,1-.052.167l.1-.05.1-.05.1-.05.1-.051.547-.265.544-.264q.271-.132.539-.268T8.123,3.2a4.126,4.126,0,0,0-.089-.692,3.233,3.233,0,0,0-.2-.613A2.806,2.806,0,0,0,7.107.91,3.175,3.175,0,0,0,6.543.516,3.68,3.68,0,0,0,5.874.233,4.737,4.737,0,0,0,5.1.062,6.48,6.48,0,0,0,4.219,0L0,0V9.073q.23-.39.491-.75t.548-.687q.288-.328.6-.628T2.293,6.435Z" fill="#1429a9"/>
              <path id="Path_26710" data-name="Path 26710" d="M4.217,1.336a3,3,0,0,0,.135-.284Q4.413.9,4.461.745t.084-.33Q4.582.244,4.6.062,4.318.251,4.03.438L3.451.814l-.581.38q-.291.191-.58.389t-.559.393q-.277.2-.549.416t-.536.442q-.265.228-.519.473l-.032.031-.032.031L.031,3.4,0,3.431l.505-.017L2.35,7.419l2.634-.134H5a.031.031,0,0,0,.012,0,.015.015,0,0,0,.007-.011.049.049,0,0,0,0-.02.184.184,0,0,0-.01-.023L5,7.209l0-.008L2.861,2.643a4.175,4.175,0,0,0,.432-.275,3.5,3.5,0,0,0,.37-.31,3.082,3.082,0,0,0,.307-.343,2.9,2.9,0,0,0,.246-.38Z" transform="translate(3.483 4.083)" fill="#1429a9"/>
            </g>
            <path id="Path_26707" data-name="Path 26707" d="M9.185,2.419c-.22.166-.394.292-.534.39s-.247.167-.331.22-.148.087-.2.115-.1.052-.146.08c-.084.05-.316.17-.624.327S6.653,3.9,6.263,4.1s-.784.395-1.106.558-.574.293-.675.35q-.2.115-.4.235t-.4.247q-.2.128-.392.266T2.9,6.043q-.278.225-.534.474t-.489.524q-.232.275-.441.576a7.306,7.306,0,0,0-.388.63q-.132.242-.25.492t-.222.508q-.1.258-.192.522T.226,10.3l-.054.2q-.027.1-.052.2t-.049.2q-.023.1-.043.2c-.009.045-.017.078-.021.1s0,.036,0,.043.018.009.039.008l.09-.006.349-.02.348-.018L1.18,11.2l.345-.016.087,0a.064.064,0,0,0,.042-.013.085.085,0,0,0,.019-.046c0-.023.01-.055.018-.1q.041-.23.091-.456t.113-.45q.063-.223.138-.442T2.2,9.244a7.152,7.152,0,0,1,.34-.7,7.231,7.231,0,0,1,.4-.641,7.419,7.419,0,0,1,.46-.589q.244-.282.512-.542.195-.189.4-.364t.411-.339q.209-.164.422-.319t.43-.3c.21-.144.422-.284.634-.422s.423-.275.634-.412.42-.274.629-.413.414-.28.618-.425q.244-.174.479-.356t.46-.378q.225-.2.438-.407T9.878,2.2q.191-.218.361-.455t.318-.49Q10.7,1,10.83.73t.228-.549l.015-.038c.005-.013.01-.026.015-.04A.275.275,0,0,0,11.1.056.28.28,0,0,0,11.1,0a5.285,5.285,0,0,1-.362.786,4.149,4.149,0,0,1-.433.621,4.95,4.95,0,0,1-.514.522C9.606,2.094,9.4,2.253,9.185,2.419Z" transform="translate(-0.004 0.541)" fill="#11a6ea"/>
          </g>
          <path id="Path_26711" data-name="Path 26711" d="M6.491,5.68c.007-.058.009-.116.011-.171s0-.111,0-.166V5.181a1.467,1.467,0,0,1,.012-.159,2.854,2.854,0,0,1,.081-.384A2.6,2.6,0,0,1,6.9,3.955a2.779,2.779,0,0,1,.221-.3.277.277,0,0,1,.069-.063.086.086,0,0,1,.06-.013.115.115,0,0,1,.057.032.424.424,0,0,1,.059.072,3.19,3.19,0,0,1,.251.436,2.733,2.733,0,0,1,.169.457,2.592,2.592,0,0,1,.082.483,2.761,2.761,0,0,1-.01.51c0,.014,0,.028,0,.042s0,.028,0,.042,0,.028,0,.042v.043a.118.118,0,0,0,.06,0,.141.141,0,0,0,.049-.021c.015-.01.029-.021.043-.032a.293.293,0,0,1,.042-.03.732.732,0,0,1,.228-.077.8.8,0,0,1,.473.069.755.755,0,0,1,.2.141.99.99,0,0,1,.161.2.813.813,0,0,1,.112.465.97.97,0,0,1-.05.253c0,.014-.009.031-.014.047a.364.364,0,0,1-.016.046.108.108,0,0,1-.024.036.059.059,0,0,1-.038.016.054.054,0,0,1-.042-.014.08.08,0,0,1-.02-.038.421.421,0,0,1-.008-.049A.259.259,0,0,0,9,6.712a.586.586,0,0,0-.065-.135.4.4,0,0,0-.089-.1.354.354,0,0,0-.112-.058A.427.427,0,0,0,8.6,6.4a1.044,1.044,0,0,0-.281.039.849.849,0,0,0-.241.113.889.889,0,0,0-.2.187,1.18,1.18,0,0,0-.154.262,2.134,2.134,0,0,0-.1.273,1.744,1.744,0,0,0-.054.281,1.543,1.543,0,0,0,.046.583.793.793,0,0,0,.113.251.408.408,0,0,0,.163.141.36.36,0,0,0,.205.025.63.63,0,0,0,.236-.095,1.183,1.183,0,0,0,.182-.142,1.663,1.663,0,0,0,.155-.169c.049-.06.094-.123.138-.187s.087-.13.129-.2l.027-.043c.009-.015.018-.029.026-.044s.018-.029.026-.044.018-.029.027-.043.014-.024.021-.036a.362.362,0,0,1,.022-.037A.087.087,0,0,1,9.118,7.5a.047.047,0,0,1,.036,0,.065.065,0,0,1,.039.026.084.084,0,0,1,.013.041.291.291,0,0,1,0,.049c0,.016,0,.033,0,.047,0,.06,0,.12,0,.181s0,.12,0,.179a1.482,1.482,0,0,0,.017.178,1.008,1.008,0,0,0,.044.175l.021.059c.007.02.014.04.022.059s.016.039.024.057a.591.591,0,0,0,.029.054.576.576,0,0,0,.1.125.119.119,0,0,0,.086.038.116.116,0,0,0,.079-.05.561.561,0,0,0,.075-.138,3.948,3.948,0,0,1,.364-.692,3.133,3.133,0,0,1,.466-.553,2.861,2.861,0,0,1,.567-.413,3.09,3.09,0,0,1,.666-.271c.085-.024.172-.045.259-.061a2.162,2.162,0,0,1,.261-.032,1.769,1.769,0,0,1,.263,0A1.581,1.581,0,0,1,12.8,6.6l.033.007.033.008a.072.072,0,0,1,.027.016.059.059,0,0,1,.016.031.073.073,0,0,1,0,.045.054.054,0,0,1-.024.024.192.192,0,0,1-.035.014.227.227,0,0,0-.034.013,4.306,4.306,0,0,0-.859.6,4.356,4.356,0,0,0-.677.772,5.19,5.19,0,0,0-.506.932,6.893,6.893,0,0,0-.348,1.076c-.016.068-.029.119-.041.155s-.026.058-.043.065-.038,0-.068-.018a1.189,1.189,0,0,1-.116-.093,5.652,5.652,0,0,0-.671-.5,5.01,5.01,0,0,0-.718-.38A4.772,4.772,0,0,0,8,9.112a4.933,4.933,0,0,0-.814-.127A5.153,5.153,0,0,0,6.317,9a4.838,4.838,0,0,0-.845.163,4.959,4.959,0,0,0-.815.315,5.534,5.534,0,0,0-.783.467,1.91,1.91,0,0,1-.161.108c-.04.022-.067.029-.088.019s-.035-.038-.048-.085-.025-.114-.042-.2A7.118,7.118,0,0,0,3.23,8.661a5.561,5.561,0,0,0-.48-1A4.889,4.889,0,0,0,2.075,6.8a5.053,5.053,0,0,0-.891-.721.3.3,0,0,0-.037-.018.267.267,0,0,1-.038-.02.07.07,0,0,1-.026-.029.067.067,0,0,1,0-.046A.065.065,0,0,1,1.1,5.927a.082.082,0,0,1,.036-.015.245.245,0,0,1,.043,0h.042a2.713,2.713,0,0,1,1.11.164,3.071,3.071,0,0,1,.5.242,3.812,3.812,0,0,1,.474.335,3.336,3.336,0,0,1,.372.356,3.4,3.4,0,0,1,.307.4,3.723,3.723,0,0,1,.248.448,4.311,4.311,0,0,1,.195.488.5.5,0,0,0,.054.122.114.114,0,0,0,.064.052A.105.105,0,0,0,4.631,8.5a.452.452,0,0,0,.1-.083.729.729,0,0,0,.1-.127.886.886,0,0,0,.067-.141A1.24,1.24,0,0,0,4.936,8c.012-.052.022-.105.03-.159,0-.026.007-.053.008-.08s0-.054,0-.081,0-.054,0-.081,0-.054.007-.08a.411.411,0,0,0,0-.072c0-.026,0-.052,0-.076A.141.141,0,0,1,5,7.307a.067.067,0,0,1,.049-.034.063.063,0,0,1,.054.014.163.163,0,0,1,.039.053c.011.022.021.046.03.07a.647.647,0,0,0,.029.067c.042.078.084.156.127.233s.088.153.136.226a1.972,1.972,0,0,0,.156.208,1.376,1.376,0,0,0,.188.181.716.716,0,0,0,.243.132.363.363,0,0,0,.215,0,.4.4,0,0,0,.181-.13.83.83,0,0,0,.136-.253,1.457,1.457,0,0,0,.076-.487,1.859,1.859,0,0,0-.078-.524,1.457,1.457,0,0,0-.227-.46.891.891,0,0,0-.371-.3,1.1,1.1,0,0,0-.244-.073.406.406,0,0,0-.194.012.384.384,0,0,0-.16.11.983.983,0,0,0-.145.219.216.216,0,0,0-.01.024.152.152,0,0,1-.011.023.042.042,0,0,1-.016.016.039.039,0,0,1-.026,0,.071.071,0,0,1-.033-.016A.092.092,0,0,1,5.123,6.6a.243.243,0,0,1-.014-.035L5.1,6.526a.847.847,0,0,1-.047-.336.9.9,0,0,1,.081-.321.829.829,0,0,1,.188-.261.691.691,0,0,1,.274-.158A.944.944,0,0,1,5.8,5.41a.625.625,0,0,1,.2.019,1.027,1.027,0,0,1,.218.087A3.009,3.009,0,0,1,6.491,5.68Z" transform="translate(-1.077 -3.577)" fill="#1429a9"/>
        </g>
        <g id="Group_18711" data-name="Group 18711" transform="translate(0 0)">
          <path id="Path_26505" data-name="Path 26505" d="M-868.9-1212.56a.7.7,0,0,1-.573.163,52.378,52.378,0,0,0-7.721.524,50.776,50.776,0,0,0-6.386,1.1c-1.423.348-2.866.616-4.294.956-2.034.483-4.026,1.1-6.017,1.719-2.117.656-4.215,1.374-6.306,2.111q-4.742,1.67-9.39,3.59c-3.12,1.3-6.259,2.551-9.371,3.866-5.011,2.118-9.993,4.3-15.013,6.4-4.4,1.838-8.836,3.593-13.338,5.169-3.745,1.312-7.523,2.519-11.382,3.468-2.052.5-4.117.933-6.183,1.367a54.252,54.252,0,0,1-15.253.833,38.3,38.3,0,0,1-21.639-8.657,54.608,54.608,0,0,1-10.863-12.008c-.043-.064-.084-.129-.129-.192-.215-.3-.662-.645-.425-.953.208-.271.659.087.984.211,1.735.662,3.49,1.257,5.256,1.834a60.073,60.073,0,0,0,8.244,2.014c2,.353,4.035.546,6.058.786a102.223,102.223,0,0,0,12.61.391c3.228-.019,6.443-.35,9.647-.684,3.25-.338,6.491-.824,9.711-1.393,3.878-.685,7.738-1.482,11.589-2.311,3.373-.726,6.73-1.535,10.081-2.359,3.4-.837,6.785-1.748,10.181-2.61,3.719-.944,7.436-1.9,11.168-2.791,3.431-.822,6.869-1.611,10.323-2.337,2.873-.6,5.759-1.136,8.67-1.553,2.757-.395,5.521-.664,8.287-.959a63.6,63.6,0,0,1,7.58-.192,43.64,43.64,0,0,1,13.282,2.137,3.451,3.451,0,0,1,.432.167C-869.017-1212.72-868.978-1212.648-868.9-1212.56Z" transform="translate(1036.294 1329.859)" fill="url(#linear-gradient)"/>
          <rect id="Rectangle_19720" data-name="Rectangle 19720" width="3.569" height="1.862" rx="0.931" transform="translate(90.02 67.811) rotate(-20.972)" fill="#11a6ea" opacity="0.37"/>
          <rect id="Rectangle_19719" data-name="Rectangle 19719" width="3.569" height="1.396" rx="0.698" transform="translate(91.033 70.419) rotate(-20.972)" fill="#11a6ea" opacity="0.37"/>
          <rect id="Rectangle_19718" data-name="Rectangle 19718" width="3.569" height="1.396" rx="0.698" transform="translate(95.223 68.782) rotate(-20.972)" fill="#11a6ea" opacity="0.37"/>
          <rect id="Rectangle_19721" data-name="Rectangle 19721" width="3.569" height="1.862" rx="0.931" transform="translate(94.364 66.22) rotate(-20.972)" fill="#11a6ea" opacity="0.37"/>
          <rect id="Rectangle_19722" data-name="Rectangle 19722" width="3.569" height="1.862" rx="0.931" transform="translate(98.829 64.419) rotate(-20.972)" fill="#11a6ea" opacity="0.37"/>
          <path id="Path_26515" data-name="Path 26515" d="M2647.833,4086.072c1.013.814,1.034,1.315.187,2.28a1.378,1.378,0,0,0-.213.842c-.012,6.2,0,12.409-.026,18.613,0,.42.328,1.213-.38,1.194-.671-.018-.336-.8-.337-1.225q-.036-9.231-.011-18.46a1.328,1.328,0,0,0-.468-1.2c-.636-.523-.485-1.213.318-2.041a.99.99,0,0,1,.47-.16A.941.941,0,0,1,2647.833,4086.072Z" transform="translate(-2512.948 -4072.681)" fill="#4a4a4a"/>
          <path id="Path_26521" data-name="Path 26521" d="M2673.92,4110.536a24.889,24.889,0,0,0-3.411.649,9.992,9.992,0,0,0-4.516,3.538,5.654,5.654,0,0,1-5.737,2.086c-.378-.064-.6-.188-.594-.635.015-3.593.009-7.186.009-10.78.082,0,.15-.028.17-.006,1.813,2.035,4.235,2.434,6.769,2.508.722.021,1.445-.041,2.168-.067C2671.056,4107.754,2672.515,4109.135,2673.92,4110.536Z" transform="translate(-2524.33 -4089.128)" fill="#0056a9"/>
          <path id="Path_26677" data-name="Path 26677" d="M3486.331-786.5h0a2.086,2.086,0,0,1,1.131.325,2.536,2.536,0,0,1,.842.91c1.444,2.53,3.011,5.047,4.526,7.48.575.923,1.169,1.877,1.749,2.82l.258.419c.5.815,1.022,1.659,1.515,2.5l.006.009.005.009a1.762,1.762,0,0,0,1.289.92l.016,0a14.263,14.263,0,0,1,2.982.893,11.573,11.573,0,0,1,2.689,1.607,7.906,7.906,0,0,1,1.29,1.292,6.143,6.143,0,0,1,.865,1.5,5.867,5.867,0,0,1,.39,1.7,7.107,7.107,0,0,1-.116,1.879,91.085,91.085,0,0,1-2.213,8.938c-.785,2.63-1.71,5.4-2.911,8.712-.045.124-5.312,14.929-6.5,18.515a44.96,44.96,0,0,0-1.467,5.545,1.21,1.21,0,0,1-1.113,1.109c-.434.052-.879.137-1.31.219-.211.04-.431.082-.648.119a4.056,4.056,0,0,1-.687.073,1.325,1.325,0,0,1-.545-.1.923.923,0,0,1-.43-.388,2.392,2.392,0,0,1-.216-1.16c-.017-1.1-.022-2.219-.026-3.3,0-.673-.005-1.369-.011-2.053q-.015-.673-.01-1.348-.172.981-.3,1.966v0a47.318,47.318,0,0,0-.465,5.726,1.171,1.171,0,0,1-.253.771,1.226,1.226,0,0,1-.733.384l-1.243.244c-2.623.514-5.332,1.045-7.981,1.634-1.99.442-4,.944-5.953,1.429-.851.212-1.73.431-2.6.642-.892.217-1.8.436-2.675.649-1.955.473-3.977.961-5.959,1.459-1.287.324-2.593.667-3.856,1-1.505.4-3.062.8-4.6,1.183-3.923.968-7.767,1.91-11.655,2.788-3.619.818-6.947,1.484-10.172,2.037-2.894.5-6.009,1.009-9.18,1.4-2.19.273-4,.468-5.708.614-2.063.177-3.943.28-5.745.313h-.058a3.205,3.205,0,0,1-2.483-1.373c-.083-.091-.169-.186-.253-.275l-.02-.02-.016-.021a3.063,3.063,0,0,1-.454-.878,8.242,8.242,0,0,1-.58-1.4,5.626,5.626,0,0,1-.251-1.777,5.083,5.083,0,0,1,.482-2.014,7.107,7.107,0,0,1,1.534-2.083c1.406-1.56,12.858-14.211,25.627-26.676l-.14-.368c-.171-.446-1.122-2.225-1.43-2.788a2.017,2.017,0,0,1-.278-1.275,1.924,1.924,0,0,1,.66-1.127,2.416,2.416,0,0,0,.846-1.359,2.182,2.182,0,0,0-.414-1.53,1.438,1.438,0,0,1,.2-1.775c.448-.581.906-1.17,1.348-1.74,1.584-2.035,3.221-4.139,4.7-6.289a8.766,8.766,0,0,1,5.068-3.756c.193-.053.411-.115.562-.175a.764.764,0,0,0,.163-.08.81.81,0,0,0-.04-.2c-.045-.16-.125-.374-.216-.617a1.162,1.162,0,0,1-.034-.906,1.135,1.135,0,0,1,.7-.543c.332-.113.667-.248.993-.377.409-.164.833-.333,1.268-.47l.124-.038c.093-.028.212-.065.283-.094a2.09,2.09,0,0,0-.142-.422,14.734,14.734,0,0,1-.6-1.543l-.134-.409.546-.209-.182-.5a.909.909,0,0,1,.03-.7.913.913,0,0,1,.518-.474l1.313-.478a.911.911,0,0,1,.313-.055.921.921,0,0,1,.862.6l.163.446.665-.256.163.422c.13.338.262.676.389,1,.328.834.636,1.623.921,2.441a.83.83,0,0,0,.139.285.72.72,0,0,0,.266-.079c.539-.235,1.094-.443,1.63-.643.466-.174.947-.354,1.407-.548a1.5,1.5,0,0,1,.584-.138.848.848,0,0,1,.627.262,1.249,1.249,0,0,1,.285.538l1.523,3.492c2.307-1.814,4.026-3.118,4.787-3.695.23-.175.415-.314.454-.346,1.019-.926,2.056-1.866,3.06-2.775,1.816-1.646,3.7-3.348,5.534-5.031,3.813-3.493,7.666-7.042,11.452-10.548.148-.135.293-.28.436-.42a6.494,6.494,0,0,1,1.622-1.282A2.683,2.683,0,0,1,3486.331-786.5Zm9.238,14.9c-.487-.831-1-1.667-1.5-2.475-.087-.14-.172-.28-.258-.42-.579-.94-1.173-1.894-1.747-2.815-1.521-2.441-3.092-4.965-4.544-7.51a1.378,1.378,0,0,0-1.189-.779h0a1.8,1.8,0,0,0-.8.211,5.713,5.713,0,0,0-1.393,1.118c-.148.145-.3.3-.457.44-3.787,3.506-7.642,7.056-11.456,10.551-1.84,1.685-3.72,3.388-5.538,5.034-1,.91-2.044,1.852-3.065,2.779-.035.032-.1.079-.509.392-.809.613-2.7,2.049-5.233,4.046l-.46.363-2.018-4.625-.008-.033a.637.637,0,0,0-.062-.164.761.761,0,0,0-.219.066c-.478.2-.968.386-1.441.563-.526.2-1.07.4-1.585.625a1.564,1.564,0,0,1-.627.154.884.884,0,0,1-.669-.3,1.67,1.67,0,0,1-.323-.6c-.28-.8-.586-1.583-.909-2.409-.076-.193-.153-.389-.23-.587l-.681.262-.477-1.311a.015.015,0,0,0-.013-.009h-.005l-1.312.478a.014.014,0,0,0-.008.007c0,.005,0,.008,0,.01l.486,1.333-.566.217c.129.355.272.706.431,1.048l0,.013a1.458,1.458,0,0,1,.144,1.182.833.833,0,0,1-.416.4,3.03,3.03,0,0,1-.432.156l-.118.037c-.4.127-.793.283-1.206.447-.334.134-.683.272-1.035.393a.732.732,0,0,0-.17.077.734.734,0,0,0,.055.2,7.17,7.17,0,0,1,.269.8,1.077,1.077,0,0,1-.049.749c-.2.387-.641.534-1.3.714a7.906,7.906,0,0,0-4.562,3.4c-1.5,2.172-3.141,4.286-4.732,6.331-.442.569-.9,1.157-1.348,1.737a1.138,1.138,0,0,0-.235.428.4.4,0,0,0,.081.309,3.08,3.08,0,0,1,.545,2.16,3.284,3.284,0,0,1-1.132,1.886.911.911,0,0,0-.2,1.3c.009.017.751,1.379,1.193,2.275l2.764-2.834.284.567c.059.115.116.23.175.348s.118.234.181.359l.15.3-.241.231c-13.973,13.366-27.229,28.013-28.693,29.639l-.011.012-.011.011a4.748,4.748,0,0,0-1.005,6.249l.019.036.011.039a2.164,2.164,0,0,0,.314.626c.084.09.167.181.247.269a4.876,4.876,0,0,0,.813.773,1.7,1.7,0,0,0,1,.3h.042c1.781-.033,3.641-.135,5.685-.31,1.693-.145,3.5-.339,5.674-.61,3.153-.393,6.255-.9,9.139-1.4,3.209-.551,6.522-1.214,10.125-2.028,3.881-.877,7.72-1.817,11.638-2.784,1.531-.378,3.085-.786,4.587-1.18,1.265-.333,2.573-.676,3.866-1,1.987-.5,4.01-.988,5.967-1.461.876-.212,1.782-.431,2.673-.648.864-.211,1.742-.429,2.592-.641,1.954-.487,3.974-.99,5.976-1.434,2.659-.591,5.375-1.123,8-1.638l1.243-.244c.17-.033.212-.075.219-.083a.379.379,0,0,0,.039-.2,47.822,47.822,0,0,1,.473-5.835,47.3,47.3,0,0,1,1.532-7.219l.882.18a49.057,49.057,0,0,0-.3,6.526v.005c.006.687.008,1.385.012,2.06,0,1.079.009,2.194.025,3.289a1.892,1.892,0,0,0,.094.72c.008.014.011.015.017.018a.478.478,0,0,0,.177.022,3.284,3.284,0,0,0,.533-.06c.21-.036.425-.077.634-.117.445-.084.9-.172,1.369-.228.172-.021.213-.067.228-.083a.679.679,0,0,0,.108-.3v0a46.043,46.043,0,0,1,1.5-5.657c1.193-3.593,6.466-18.412,6.511-18.537a116.277,116.277,0,0,0,5.085-17.511,5.3,5.3,0,0,0-2.106-5.494,11.769,11.769,0,0,0-5.265-2.315,2.683,2.683,0,0,1-1.134-.463A2.663,2.663,0,0,1,3495.569-771.593Zm-11.682-10.675a.889.889,0,0,1,.648.261,1.487,1.487,0,0,1,.337,1.109,19.887,19.887,0,0,1-.361,3.139c-.051.3-.1.608-.15.913l-.022.145c-.137.917-.3,1.844-.45,2.741-.133.776-.27,1.577-.393,2.366a1.365,1.365,0,0,1-.3.71,1.23,1.23,0,0,1-.711.372c-.993.2-2,.382-2.981.556s-2.016.358-3.015.563h0a56.421,56.421,0,0,0-9.229,2.71l-.467-.756c.451-.407.906-.824,1.348-1.226.96-.875,1.952-1.779,2.941-2.655l.978-.867c3.058-2.709,6.219-5.511,9.22-8.38l.142-.136a8.353,8.353,0,0,1,1.544-1.262A1.873,1.873,0,0,1,3483.887-782.267Zm.011.9h-.011a1.032,1.032,0,0,0-.465.181,7.493,7.493,0,0,0-1.375,1.133l-.144.138c-3.015,2.881-6.183,5.688-9.246,8.4q-.489.433-.978.867c-.864.765-1.731,1.553-2.577,2.323a57.266,57.266,0,0,1,7.2-1.959c1.012-.208,2.041-.391,3.038-.568.972-.173,1.976-.351,2.957-.552a.468.468,0,0,0,.22-.088.518.518,0,0,0,.079-.247c.124-.8.262-1.6.4-2.38.141-.82.285-1.665.413-2.5l.033-.221c.055-.36.117-.724.176-1.075a19.346,19.346,0,0,0,.35-3A.889.889,0,0,0,3483.9-781.363Zm4.471,1.272a1.082,1.082,0,0,1,.858.57l.02.027a37.194,37.194,0,0,1,2.577,4.42c.1.19.2.386.3.579.194.368.377.746.555,1.111.188.386.382.784.585,1.165a.911.911,0,0,1,.071.882.782.782,0,0,1-.622.341l-.008.007h-2.788v-.007l-.12,0c-.184,0-.374-.005-.559-.005-.271,0-.493.005-.7.018-.044,0-.088,0-.127,0a.962.962,0,0,1-.833-.365,1.389,1.389,0,0,1-.2-.806c-.022-1.332.046-2.675.112-3.974.048-.956.1-1.945.112-2.914,0-.024,0-.057,0-.091a1.238,1.238,0,0,1,.036-.443.706.706,0,0,1,.53-.494A.862.862,0,0,1,3488.369-780.091Zm4.048,8.2c-.191-.364-.372-.736-.547-1.1s-.355-.73-.543-1.086l-.3-.581a36.7,36.7,0,0,0-2.512-4.315l-.006-.008c-.014.97-.063,1.951-.112,2.9-.066,1.284-.133,2.612-.111,3.913a1.03,1.03,0,0,0,.028.274.556.556,0,0,0,.106.008l.073,0c.224-.013.463-.019.752-.019.191,0,.385,0,.571.005s.374.005.559.005h.452v0Zm-37.6,7.954,1.7,4.005-.269.214c-4.175,3.334-8.173,6.68-11.887,9.948l.042.105-.393.177-.186-.412-.42.166c-.708-1.789-1.406-3.616-2.08-5.382-.241-.629-.49-1.28-.735-1.92l-.488-1.267,1.366-.523,3.2-1.23c3.191-1.227,6.492-2.5,9.747-3.727Zm.6,3.727-1.089-2.574c-3.119,1.182-6.278,2.4-9.336,3.572l-3.2,1.231-.522.2.163.422c.246.641.494,1.292.735,1.922.6,1.567,1.217,3.182,1.842,4.774C3447.575-753.8,3451.41-757.011,3455.408-760.21Zm5.783,3.809a4.077,4.077,0,0,1,1.6.322,4.077,4.077,0,0,1,1.3.878,4.075,4.075,0,0,1,.879,1.3,4.083,4.083,0,0,1,.322,1.6,4.081,4.081,0,0,1-.322,1.6,4.079,4.079,0,0,1-.879,1.3,4.079,4.079,0,0,1-1.3.878,4.075,4.075,0,0,1-1.6.322h0a4.082,4.082,0,0,1-1.6-.322,4.081,4.081,0,0,1-1.3-.878,4.087,4.087,0,0,1-.877-1.3,4.063,4.063,0,0,1-.323-1.6,4.088,4.088,0,0,1,.321-1.6,4.118,4.118,0,0,1,.879-1.3,4.087,4.087,0,0,1,1.3-.878A4.08,4.08,0,0,1,3461.19-756.4Zm0,7.293a3.2,3.2,0,0,0,3.195-3.194,3.2,3.2,0,0,0-3.195-3.195A3.2,3.2,0,0,0,3458-752.3a3.2,3.2,0,0,0,3.194,3.194Zm-12.025.93a3.533,3.533,0,0,1,1.384.28,3.563,3.563,0,0,1,1.131.762,3.567,3.567,0,0,1,.761,1.13,3.542,3.542,0,0,1,.279,1.384,3.54,3.54,0,0,1-.279,1.384,3.553,3.553,0,0,1-.762,1.13,3.539,3.539,0,0,1-1.13.761,3.52,3.52,0,0,1-.823.236l.011.045h-.572a3.532,3.532,0,0,1-1.384-.28,3.518,3.518,0,0,1-1.128-.762,3.544,3.544,0,0,1-.763-1.13,3.559,3.559,0,0,1-.279-1.384,3.534,3.534,0,0,1,.279-1.384,3.553,3.553,0,0,1,.762-1.13,3.536,3.536,0,0,1,1.13-.762A3.525,3.525,0,0,1,3449.166-748.179Zm0,6.208h0a2.654,2.654,0,0,0,2.652-2.651,2.635,2.635,0,0,0-.776-1.875,2.633,2.633,0,0,0-1.875-.777,2.633,2.633,0,0,0-1.875.777,2.635,2.635,0,0,0-.776,1.876,2.655,2.655,0,0,0,2.575,2.651h.076ZM3438.3-738.4a2.922,2.922,0,0,1,1.143.231,2.924,2.924,0,0,1,.932.629,2.931,2.931,0,0,1,.629.933,2.921,2.921,0,0,1,.231,1.142,2.923,2.923,0,0,1-.231,1.142,2.933,2.933,0,0,1-.629.933,2.922,2.922,0,0,1-.932.629,2.917,2.917,0,0,1-1.143.231h0a2.922,2.922,0,0,1-1.142-.231,2.925,2.925,0,0,1-.933-.629,2.949,2.949,0,0,1-.628-.932,2.9,2.9,0,0,1-.231-1.142,2.9,2.9,0,0,1,.231-1.143,2.945,2.945,0,0,1,.628-.932,2.927,2.927,0,0,1,.933-.629A2.921,2.921,0,0,1,3438.3-738.4Zm0,4.982v-.016a2.033,2.033,0,0,0,2.031-2.031,2.033,2.033,0,0,0-2.031-2.031,2.033,2.033,0,0,0-2.031,2.031,2.032,2.032,0,0,0,2.031,2.031Z" transform="translate(-3351.902 826.67)" fill="#0056a9"/>
          <g id="Group_18708" data-name="Group 18708">
            <path id="Path_26506" data-name="Path 26506" d="M.043,10.874c.94-.336,1.828-.647,2.711-.969,2.668-.975,5.337-1.946,7.994-2.948a.825.825,0,0,0,.457-.587c.033-2.017.02-4.035.016-6.053A1.928,1.928,0,0,0,11.152,0c-.989.359-1.947.7-2.9,1.054C5.7,1.986,3.149,2.928.59,3.84A.747.747,0,0,0,0,4.681c.027,1.853.011,3.705.012,5.559C.013,10.423.029,10.6.043,10.874Z" transform="translate(50.951 95.414) rotate(-25)" fill="#0056a9"/>
            <g id="Group_18680" data-name="Group 18680" transform="translate(44.92 64.873) rotate(3)">
              <path id="Path_26440" data-name="Path 26440" d="M10.816,0Q5.621,1.89.439,3.814c-.181.067-.42.307-.422.471C-.009,6.345,0,8.406.006,10.466a1.482,1.482,0,0,0,.078.295c.97-.349,1.916-.685,2.858-1.03,2.572-.942,5.138-1.9,7.718-2.82a.7.7,0,0,0,.551-.8C11.188,4.713,11.08-.095,10.816,0Z" transform="matrix(0.891, -0.454, 0.454, 0.891, 0, 15.053)" fill="#0056a9"/>
              <path id="Path_26441" data-name="Path 26441" d="M11.15,0C9.457.614,7.815,1.205,6.175,1.8,4.318,2.483,2.471,3.187.6,3.836a.772.772,0,0,0-.6.891C.028,6.742.013,8.758.013,10.89c.73-.259,1.381-.485,2.028-.721l8.645-3.161c.3-.11.552-.2.548-.62-.02-2.04-.012-4.079-.016-6.119A1.557,1.557,0,0,0,11.15,0Z" transform="matrix(0.891, -0.454, 0.454, 0.891, 3.589, 22.572)" fill="#11a6ea"/>
              <path id="Path_26443" data-name="Path 26443" d="M11.191,0C9.37.666,7.654,1.292,5.939,1.92,4.123,2.585,2.311,3.259.492,3.915.194,4.022,0,4.123,0,4.5c.017,2.017.009,4.035.012,6.053a2.415,2.415,0,0,0,.053.318c.209-.061.4-.1.583-.171Q5.692,8.856,10.73,7c.186-.069.439-.305.442-.466C11.2,4.392,11.191,2.256,11.191,0Z" transform="matrix(0.891, -0.454, 0.454, 0.891, 12.998, 12.143)" fill="#0056a9"/>
              <path id="Path_26554" data-name="Path 26554" d="M11.191,0C9.37.666,7.654,1.292,5.939,1.92,4.123,2.585,2.311,3.259.492,3.915.194,4.022,0,4.123,0,4.5c.017,2.017.009,4.035.012,6.053a2.415,2.415,0,0,0,.053.318c.209-.061.4-.1.583-.171Q5.692,8.856,10.73,7c.186-.069.439-.305.442-.466C11.2,4.392,11.191,2.256,11.191,0Z" transform="matrix(0.891, -0.454, 0.454, 0.891, 9.365, 5.082)" fill="#11a6ea"/>
              <path id="Path_26444" data-name="Path 26444" d="M.077,10.874c.913-.331,1.8-.65,2.68-.972,2.652-.969,5.3-1.934,7.95-2.921.189-.07.452-.3.455-.455.03-2.14.02-4.281.02-6.525-.934.335-1.8.638-2.657.952C5.836,1.934,3.145,2.914.465,3.919a.773.773,0,0,0-.444.527C-.01,6.488,0,8.529.006,10.569a1.723,1.723,0,0,0,.072.3Z" transform="matrix(0.891, -0.454, 0.454, 0.891, 16.731, 19.451)" fill="#11a6ea"/>
            </g>
            <path id="Path_26611" data-name="Path 26611" d="M15771.3,15858.906l2.613,5.891,3.475-2.719-2.428-5.859Z" transform="translate(-15702.549 -15786.804)" fill="#11a6ea"/>
            <path id="Path_26612" data-name="Path 26612" d="M15771.3,15863.654l2.527,5.613,2.6-2.328-2.6-5.111Z" transform="translate(-15697.895 -15794.949)" fill="#0056a9"/>
            <path id="Path_26613" data-name="Path 26613" d="M15771.3,15869.727l2.613,5.879,3.906-2.588-2.043-4Z" transform="translate(-15705.806 -15804.443)" fill="#0056a9"/>
            <path id="Path_26614" data-name="Path 26614" d="M15777.6,15885.717l1.857,3.439,2.547-1.73-1.357-2.252-1.9.381Z" transform="translate(-15706.47 -15821.382)" fill="#11a6ea"/>
            <path id="Path_26615" data-name="Path 26615" d="M15777.6,15884.07l2.641,4.83.867-1.1-2.271-4.582-.568.4Z" transform="translate(-15701.038 -15817.399)" fill="#11a6ea"/>
            <path id="Path_26616" data-name="Path 26616" d="M15776.8,15889.151l1.172,2.035,1.24-.8-.6-1.4h-.8Z" transform="translate(-15701.905 -15825.513)" fill="#0056a9"/>
            <path id="Path_26617" data-name="Path 26617" d="M15770.4,15857.342l2.748,5.934,3.229-3.264-2.568-5.6Z" transform="translate(-15698.37 -15777.987)" fill="#0056a9"/>
            <path id="Subtraction_6" data-name="Subtraction 6" d="M2063-2854.694a11.462,11.462,0,0,1-2.508-.286l-.258-.064-2.661-2.832a47.7,47.7,0,0,1-3.925-4.781,37.231,37.231,0,0,1-3.183-5.334,50.8,50.8,0,0,1-3.89-9.93l-.024-.089c-.047,0-.094,0-.141,0l-2.232.024c-1.687.021-3.414.041-5.114.041h-.355a2.677,2.677,0,0,1-1.5-.578c-.079-.063-.154-.127-.226-.192-.061.069-.123.136-.187.2a1.82,1.82,0,0,1-1.267.6h0a3.689,3.689,0,0,1-2.028-.878.814.814,0,0,0-.483-.162,1.545,1.545,0,0,0-.525.113c-1.286.48-2.64.992-3.972,1.544a18.471,18.471,0,0,1-3.218,1.008,16.207,16.207,0,0,1-3.346.354c-.5,0-1.009-.024-1.508-.072a9.408,9.408,0,0,1-2.976-.759,4.518,4.518,0,0,1-2.736-3.517,4.374,4.374,0,0,1,.309-2.245,5.052,5.052,0,0,1,1.483-1.953,9.615,9.615,0,0,1,4.248-1.893,18.99,18.99,0,0,1,3.986-.44,16.7,16.7,0,0,1,2.658.211c1.359.219,2.7.369,4.189.531a2.064,2.064,0,0,0,.22.013,1.08,1.08,0,0,0,.443-.087,1.073,1.073,0,0,0,.363-.3,5.134,5.134,0,0,1,.847-.863,1.921,1.921,0,0,1,1.151-.436h0a2.2,2.2,0,0,1,1.294.463,2.776,2.776,0,0,1,1.908-1.254c1.875-.416,3.7-.9,5.635-1.414l1.571-.413a49.5,49.5,0,0,1,.436-5.792,46.651,46.651,0,0,1,3.453-12.354,49.808,49.808,0,0,1,2.634-5.193c-.341-.3-.663-.593-.972-.893l-.5-.489c-1.417-1.38-2.83-2.757-4.183-4.147a2.72,2.72,0,0,1-.6-1.565c-.005-.051-.01-.1-.014-.151-.079.008-.159.012-.24.014h0a2.017,2.017,0,0,1-2.009-1.633,2.35,2.35,0,0,1-.128-.712c.005-.31-.039-.613-.663-.909l-.326-.156c-.96-.458-1.951-.931-2.954-1.328a18.643,18.643,0,0,1-6.632-4.277,8.508,8.508,0,0,1-1.6-2.258,10.205,10.205,0,0,1-.837-2.607,3.83,3.83,0,0,1,.569-2.655,4.386,4.386,0,0,1,.9-1.052,4.064,4.064,0,0,1,1.265-.739,5.146,5.146,0,0,1,1.736-.308,4.891,4.891,0,0,1,1.492.232,16.134,16.134,0,0,1,4.228,2.045,15.216,15.216,0,0,1,1.823,1.474,15.727,15.727,0,0,1,1.606,1.771c.48.617.962,1.251,1.428,1.865l1.245,1.628a3.679,3.679,0,0,0,.8.815,1.323,1.323,0,0,0,.741.222,2.346,2.346,0,0,0,.365-.027,3.1,3.1,0,0,1,.474-.039,2.079,2.079,0,0,1,1.545.625,2.125,2.125,0,0,1,.518,1.183,3.011,3.011,0,0,1,.706-.1,2.267,2.267,0,0,1,1.581.632,2.694,2.694,0,0,0,.577.311,6.171,6.171,0,0,1,.738.369c1.21.743,2.413,1.506,3.575,2.243l.8.5c.188.12.376.243.569.371a49.406,49.406,0,0,1,4.416-3.826,46.98,46.98,0,0,1,5.385-3.56,47.628,47.628,0,0,1,5.815-2.777,50.862,50.862,0,0,1,5.523-1.822l-.019-.482c-.036-.894-.07-1.735-.076-2.584-.005-.875.017-1.766.039-2.628l.029-1.2a2.85,2.85,0,0,1-.093-.988,2.6,2.6,0,0,1,.341-1.077,4.121,4.121,0,0,1,.484-.619l-.1-.082a1.964,1.964,0,0,1-.669-1.009,1.965,1.965,0,0,1,.144-1.26,4.865,4.865,0,0,1,.605-.981.91.91,0,0,0,.175-.961c-.454-1.288-.892-2.528-1.391-3.72a21.454,21.454,0,0,1-1.223-3.749,13.466,13.466,0,0,1-.291-4.03,11.51,11.51,0,0,1,.824-3.716,5.039,5.039,0,0,1,.719-1.177,4.479,4.479,0,0,1,.964-.875,4.227,4.227,0,0,1,2.353-.714,4.459,4.459,0,0,1,1.981.47,5.119,5.119,0,0,1,1.695,1.383,8.792,8.792,0,0,1,1.45,2.687,18.124,18.124,0,0,1,.683,2.8,14.187,14.187,0,0,1,.183,2.98,26.567,26.567,0,0,1-.287,2.893c-.148,1.023-.251,2.079-.35,3.1l-.084.852a.749.749,0,0,0,.058.407,1.172,1.172,0,0,0,.313.372,5.246,5.246,0,0,1,.852.841,1.906,1.906,0,0,1,.442,1.111,2.071,2.071,0,0,1-.48,1.323,3.7,3.7,0,0,1,.72.548,2.063,2.063,0,0,1,.54,1.5,18.164,18.164,0,0,1,1.014,4.054,23.514,23.514,0,0,0,.564,2.7c.03.1.07.219.112.345l.069.01a8.733,8.733,0,0,0,1.28.139,41.642,41.642,0,0,1,5.78.456,42.618,42.618,0,0,1,5.582,1.229,46.147,46.147,0,0,1,5.367,1.944,52.941,52.941,0,0,1,5.168,2.595l.214.117.277-.272c.446-.444.905-.887,1.352-1.317a47.208,47.208,0,0,0,3.316-3.408,3.29,3.29,0,0,1,2.368-1.248,2.1,2.1,0,0,1,.285-1.453,1.937,1.937,0,0,1,.977-.716,5.55,5.55,0,0,1,1.1-.259,1.073,1.073,0,0,0,.52-.22,1.28,1.28,0,0,0,.323-.447c.566-1.217,1.216-2.636,1.832-4.115a17.365,17.365,0,0,1,1.644-3.061,16.948,16.948,0,0,1,2.236-2.665,12.449,12.449,0,0,1,1.5-1.263,8.092,8.092,0,0,1,1.813-.975,5.394,5.394,0,0,1,1.913-.37h0a4.321,4.321,0,0,1,3.392,1.588,4.345,4.345,0,0,1,.94,3.553,12.816,12.816,0,0,1-.847,2.87,15.22,15.22,0,0,1-2,3.21,16.375,16.375,0,0,1-2.692,2.611l-1.266.97-.717-.589.548.718c-.7.539-1.431,1.094-2.138,1.651a2.6,2.6,0,0,0-.759.823,1.4,1.4,0,0,0-.1.879,2.193,2.193,0,0,1-.369,1.858,2.121,2.121,0,0,1-1.369.677,3.318,3.318,0,0,1,.031.876,3.669,3.669,0,0,1-.718,1.686c-.956,1.364-1.837,2.881-2.691,4.348-.315.544-.642,1.1-.971,1.656.162.179.32.349.481.52a26.974,26.974,0,0,1,3.041,3.885l1.031,1.49-.159.441a11.31,11.31,0,0,1-3.215,4.634,9.786,9.786,0,0,1-5.191,1.593h-.483l-.269-.4a17.628,17.628,0,0,0-2.263-2.8l-.325-.348a37.321,37.321,0,0,0-4.135-3.8,34.894,34.894,0,0,0-22.073-7.8c-1.259,0-2.553.063-3.849.188a35.218,35.218,0,0,0-24.111,13.4,36.411,36.411,0,0,0-7.271,27.972c1.375,7.056,7.21,16.234,12,21.265l.27.284-.023.391c-.025.442-.313,4.381-2.457,6.1A5.835,5.835,0,0,1,2063-2854.694Zm-1.824-1.988a9.964,9.964,0,0,0,1.824.179,4.322,4.322,0,0,0,2.6-.689c1.151-.923,1.621-3.232,1.752-4.42-5.025-5.391-10.754-14.532-12.191-21.911a38.225,38.225,0,0,1,7.631-29.39,37.043,37.043,0,0,1,25.36-14.085c1.353-.13,2.707-.2,4.022-.2a36.658,36.658,0,0,1,23.193,8.185,38.964,38.964,0,0,1,4.336,3.984l.324.347a18.936,18.936,0,0,1,2.153,2.595,7.553,7.553,0,0,0,3.654-1.209,8.948,8.948,0,0,0,2.423-3.382l-.493-.714a25.2,25.2,0,0,0-2.858-3.657c-.214-.226-.419-.45-.635-.688l-.646-.709.208-.616a5.782,5.782,0,0,1,.254-.52c.364-.607.716-1.212,1.055-1.8.873-1.5,1.774-3.052,2.8-4.514a1.885,1.885,0,0,0,.383-.849,1.343,1.343,0,0,0-.144-.672,1.531,1.531,0,0,1-.064-.939l.07-.885.874.078c.128.007.246.012.356.012a1.576,1.576,0,0,0,.657-.088,3.128,3.128,0,0,0-.031-.353,3.2,3.2,0,0,1,.291-2.071,4.384,4.384,0,0,1,1.262-1.407c.681-.537,1.415-1.1,2.125-1.64l1.429-1.1a14.584,14.584,0,0,0,2.394-2.323,13.346,13.346,0,0,0,1.75-2.8,10.953,10.953,0,0,0,.716-2.445,2.55,2.55,0,0,0-.552-2.091,2.5,2.5,0,0,0-1.951-.931,3.667,3.667,0,0,0-1.309.248,6.368,6.368,0,0,0-1.415.761,10.721,10.721,0,0,0-1.291,1.085,15.191,15.191,0,0,0-2,2.384,15.7,15.7,0,0,0-1.473,2.742c-.626,1.5-1.287,2.948-1.853,4.161a3.064,3.064,0,0,1-.828,1.107,2.906,2.906,0,0,1-1.428.612,3.829,3.829,0,0,0-.763.181c-.059.048-.069.26.088.95l.021.094,0,.392-.219.389-.269.671-.661-.195a3.72,3.72,0,0,0-.553-.047,1.492,1.492,0,0,0-1.247.629,48.006,48.006,0,0,1-3.373,3.475c-.5.479-.949.915-1.387,1.351l-1.234,1.22-1.43-.777a50.507,50.507,0,0,0-4.99-2.505,44.339,44.339,0,0,0-5.154-1.867,40.741,40.741,0,0,0-5.343-1.177,40.071,40.071,0,0,0-5.549-.437,10.321,10.321,0,0,1-1.534-.162c-.184-.029-.372-.058-.558-.081l-.563-.069-.25-.732c-.133-.379-.2-.573-.257-.767a25.275,25.275,0,0,1-.61-2.907,15.755,15.755,0,0,0-.984-3.84l-.127-.284.074-.3a1.063,1.063,0,0,0-.559-.5,4.932,4.932,0,0,1-.636-.381l-.182-.121-1.014-.639.893-.8c.635-.567.714-.767.724-.8a5.035,5.035,0,0,0-.606-.579,2.987,2.987,0,0,1-.83-1.018,2.551,2.551,0,0,1-.222-1.385l.072-.73c.111-1.145.217-2.229.371-3.29a24.816,24.816,0,0,0,.269-2.7,12.365,12.365,0,0,0-.16-2.607,16.327,16.327,0,0,0-.615-2.531,6.969,6.969,0,0,0-1.152-2.134,3.277,3.277,0,0,0-1.089-.888,2.618,2.618,0,0,0-1.167-.277,2.422,2.422,0,0,0-1.349.409,2.654,2.654,0,0,0-.573.519,3.254,3.254,0,0,0-.46.754,9.823,9.823,0,0,0-.679,3.137,11.688,11.688,0,0,0,.252,3.485,19.773,19.773,0,0,0,1.123,3.441c.517,1.232.967,2.506,1.4,3.738a2.769,2.769,0,0,1-.417,2.753,3.2,3.2,0,0,0-.4.65,2.3,2.3,0,0,0,.72.537l.41.2.125.583.111.64-.54.459a2.14,2.14,0,0,0-.776.719.752.752,0,0,0-.079.279,1.193,1.193,0,0,0,.064.468l.1.306-.075.234-.019.865-.909.188.9.024c-.022.842-.045,1.713-.039,2.57.005.827.038,1.649.073,2.52l.073,1.948-.708.178a48.818,48.818,0,0,0-6.01,1.934,45.586,45.586,0,0,0-5.591,2.67,45,45,0,0,0-5.176,3.421,47.277,47.277,0,0,0-4.761,4.188l-.523.525-1.007-.667c-.268-.179-.514-.343-.761-.5l-.777-.493c-1.174-.742-2.369-1.5-3.556-2.23a4.291,4.291,0,0,0-.49-.245,4.257,4.257,0,0,1-1.079-.623.551.551,0,0,0-.384-.186,1.134,1.134,0,0,0-.281.042c-.232.059-.445.122-.69.193l-1.544.443-.012-1.38a2.893,2.893,0,0,1,.007-.433.828.828,0,0,0-.045-.537h-.028l-.18-.042a1.283,1.283,0,0,0-.2.016,4.124,4.124,0,0,1-.613.05h0a3.162,3.162,0,0,1-1.826-.561,5.468,5.468,0,0,1-1.195-1.2l-1.217-1.592c-.479-.631-.958-1.26-1.436-1.874a13.7,13.7,0,0,0-1.421-1.566,13.165,13.165,0,0,0-1.6-1.3,14.267,14.267,0,0,0-3.753-1.814,3.1,3.1,0,0,0-.943-.147,3.318,3.318,0,0,0-1.124.2,2.231,2.231,0,0,0-.705.412,2.643,2.643,0,0,0-.546.64,2.023,2.023,0,0,0-.315,1.4,8.316,8.316,0,0,0,.682,2.112,6.692,6.692,0,0,0,1.257,1.775,16.872,16.872,0,0,0,6.008,3.863c1.042.412,2.071.9,3.067,1.378l.326.156a2.628,2.628,0,0,1,1.693,2.536.821.821,0,0,0,.038.153c.119.39.189.39.277.39a1.266,1.266,0,0,0,.3-.046c.108-.029.2-.062.321-.1l.29-.1,1.263-.426-.07,1.33-.035.443a2.458,2.458,0,0,0-.016.584,2.539,2.539,0,0,0,.134.595c1.321,1.354,2.723,2.72,4.079,4.041l.551.536c.3.3.623.581.959.881l1.065.959-.385.637a48.214,48.214,0,0,0-2.907,5.625,44.864,44.864,0,0,0-3.32,11.876,47.837,47.837,0,0,0-.426,6.25v.7l-2.847.746c-2.015.535-3.862,1.025-5.767,1.448-.54.119-.691.273-.844.593a4.783,4.783,0,0,1-.349.587l-.118.183-.6.975-.806-.816c-.611-.62-.814-.683-.848-.69a3.691,3.691,0,0,0-.6.6,2.9,2.9,0,0,1-1.035.828,2.82,2.82,0,0,1-1.168.253,4.306,4.306,0,0,1-.447-.023c-1.518-.164-2.89-.319-4.28-.543a14.878,14.878,0,0,0-2.357-.189,17.319,17.319,0,0,0-3.615.4,7.914,7.914,0,0,0-3.492,1.529,3.259,3.259,0,0,0-.96,1.259,2.555,2.555,0,0,0-.179,1.308,2.737,2.737,0,0,0,1.683,2.1,7.576,7.576,0,0,0,2.4.608q.678.066,1.344.066a14.4,14.4,0,0,0,2.968-.316,16.686,16.686,0,0,0,2.9-.909c1.356-.562,2.73-1.081,4.013-1.561a3.36,3.36,0,0,1,1.158-.235,2.611,2.611,0,0,1,1.539.489,3.863,3.863,0,0,0,.959.554c.244-.3.473-.59.675-.9l.635-.96.783.844.249.285a2.9,2.9,0,0,0,.474.491,1.105,1.105,0,0,0,.407.205h.35c1.692,0,3.413-.02,5.076-.04l2.229-.024h0c.236,0,.434.012.644.028l.929.054.247.87c.055.191.1.354.141.515a49.231,49.231,0,0,0,3.76,9.572,35.526,35.526,0,0,0,3.026,5.071,46,46,0,0,0,3.775,4.6Z" transform="translate(-2014.7 2967.272)" fill="#11a6ea"/>
            <path id="Path_26619" data-name="Path 26619" d="M19760.723,15343.816s-26.85-6.332-42.531,18.986c0,.105,14.182-21.637,42.1-17.379a1.116,1.116,0,0,0,.578-.648A1.768,1.768,0,0,0,19760.723,15343.816Z" transform="translate(-19674.68 -15307.974)" fill="#11a6ea"/>
            <path id="Path_26620" data-name="Path 26620" d="M.608,0S10.6,3.476,16.785,10.863A50.674,50.674,0,0,0,.253,1.178S-.073.728.015.433.608,0,.608,0Z" transform="translate(93.082 38.65) rotate(4.012)" fill="#11a6ea"/>
            <path id="Path_26625" data-name="Path 26625" d="M.608,0S10.6,3.476,16.785,10.863A50.678,50.678,0,0,0,.253,1.178S-.074.728.015.433.608,0,.608,0Z" transform="matrix(-0.906, -0.423, 0.423, -0.906, 48.834, 108.485)" fill="#11a6ea"/>
            <path id="Path_26621" data-name="Path 26621" d="M.468,4.968A12.029,12.029,0,0,1,4.72.161,1.4,1.4,0,0,1,6.683,1.867C6.258,3.278,1.356,6.042,1.356,6.042s-1.039.6-1.261.333S.061,5.843.468,4.968Z" transform="translate(116.143 20.05) rotate(-8)" fill="#11a6ea"/>
            <path id="Path_26623" data-name="Path 26623" d="M.468,4.968A12.029,12.029,0,0,1,4.72.161,1.4,1.4,0,0,1,6.683,1.867C6.258,3.278,1.356,6.042,1.356,6.042s-1.039.6-1.261.333S.061,5.843.468,4.968Z" transform="translate(20.179 38.9) rotate(-101.007)" fill="#11a6ea"/>
            <path id="Path_26624" data-name="Path 26624" d="M.468,4.968A12.029,12.029,0,0,1,4.72.161,1.4,1.4,0,0,1,6.683,1.867C6.258,3.278,1.356,6.042,1.356,6.042s-1.039.6-1.261.333S.061,5.843.468,4.968Z" transform="translate(9.393 90.604) rotate(-144.975)" fill="#11a6ea"/>
            <ellipse id="Ellipse_460" data-name="Ellipse 460" cx="1.939" cy="0.776" rx="1.939" ry="0.776" transform="matrix(0.755, 0.656, -0.656, 0.755, 112.011, 30.164)" fill="#11a6ea"/>
            <ellipse id="Ellipse_461" data-name="Ellipse 461" cx="1.939" cy="0.776" rx="1.939" ry="0.776" transform="translate(68.501 19.474) rotate(-4)" fill="#11a6ea"/>
            <ellipse id="Ellipse_462" data-name="Ellipse 462" cx="1.939" cy="0.776" rx="1.939" ry="0.776" transform="matrix(0.616, -0.788, 0.788, 0.616, 30.341, 42.807)" fill="#11a6ea"/>
            <ellipse id="Ellipse_463" data-name="Ellipse 463" cx="1.939" cy="0.776" rx="1.939" ry="0.776" transform="translate(19.417 86.356) rotate(-96)" fill="#11a6ea"/>
            <path id="Path_26622" data-name="Path 26622" d="M.468,4.968A12.029,12.029,0,0,1,4.72.161,1.4,1.4,0,0,1,6.683,1.867C6.258,3.278,1.356,6.042,1.356,6.042s-1.039.6-1.261.333S.061,5.843.468,4.968Z" transform="matrix(0.602, -0.799, 0.799, 0.602, 64.271, 9.4)" fill="#11a6ea"/>
          </g>
          <g id="Group_18709" data-name="Group 18709" transform="translate(136.109 19.248)">
            <path id="Path_26535" data-name="Path 26535" d="M1683.492-3093.349c.092-.129.171-.165.277-.126a.208.208,0,0,1,.129.205c-.012.116-.082.174-.238.2a.948.948,0,0,0,.566.386.371.371,0,0,0,.42-.238.7.7,0,0,0,.036-.312.058.058,0,0,0-.053-.061.232.232,0,0,1-.188-.2.233.233,0,0,1,.11-.251.238.238,0,0,1,.274.007.244.244,0,0,1,.1.16.246.246,0,0,1-.043.184.337.337,0,0,1-.021.026.074.074,0,0,0-.028.056.079.079,0,0,0,.024.059.646.646,0,0,0,.67.276.67.67,0,0,0,.5-.531c0-.013.011-.028,0-.033s-.024.006-.036.012a.339.339,0,0,1-.4-.045.34.34,0,0,1-.076-.376.312.312,0,0,1,.294-.206c.03,0,.068.007.04-.047a.279.279,0,0,1,.027-.295c.042-.064.093-.124.139-.187a1.24,1.24,0,0,0,.179-.3c0-.01.009-.023.018-.025s.018.013.023.024a1.536,1.536,0,0,0,.259.4.339.339,0,0,1,.08.392c-.022.043.018.033.036.034a.311.311,0,0,1,.312.242.316.316,0,0,1-.092.344.326.326,0,0,1-.356.062c-.026-.011-.05-.024-.079-.038a.189.189,0,0,0,.016.107.642.642,0,0,0,.751.461.648.648,0,0,0,.425-.314c.024-.038,0-.049-.022-.067a.246.246,0,0,1-.005-.348.261.261,0,0,1,.047-.038.232.232,0,0,1,.262,0,.235.235,0,0,1,.109.252.222.222,0,0,1-.171.192.078.078,0,0,0-.055.031.08.08,0,0,0-.018.06v0a.776.776,0,0,0,.02.224.388.388,0,0,0,.208.269.392.392,0,0,0,.34,0,1.036,1.036,0,0,0,.457-.359c-.034-.006-.065-.01-.094-.018a.2.2,0,0,1-.144-.193.2.2,0,0,1,.137-.194.2.2,0,0,1,.234.078c.029.051.045.044.08.009a.572.572,0,0,1,.406-.158c.018,0,.044-.01.051.015s-.016.034-.028.047a3.981,3.981,0,0,0-.6.749,4.159,4.159,0,0,0-.405.838c-.058.165-.033.132-.188.132h-4.011c-.108,0-.109,0-.145-.1a4.1,4.1,0,0,0-.453-.929,4.1,4.1,0,0,0-.542-.667c-.021-.02-.061-.042-.048-.07s.059-.013.089-.011a.583.583,0,0,1,.411.2Zm2.708.568-.022.016-.34.347c-.02.02-.015.036,0,.055l.317.323c.032.033.057.033.09,0,.1-.106.205-.209.31-.312.031-.031.028-.051,0-.079-.109-.108-.215-.218-.323-.327a.05.05,0,0,0-.036-.021Zm.785.126a.362.362,0,0,0-.031.027c-.073.073-.144.147-.22.219-.036.034-.028.059,0,.09.071.069.142.138.21.211.029.031.047.033.077,0,.073-.079.149-.155.225-.231.019-.019.023-.031,0-.052-.081-.08-.161-.162-.241-.243a.311.311,0,0,0-.026-.021Zm-1.285.281a.261.261,0,0,0-.016-.022c-.081-.081-.162-.161-.242-.242-.019-.02-.033-.012-.049,0l-.236.238c-.016.017-.02.031,0,.049l.23.236a.041.041,0,0,0,.025.017.037.037,0,0,0,.029-.006.052.052,0,0,0,.011-.011c.073-.076.148-.15.222-.225a.4.4,0,0,0,.026-.036Zm-1.063.073a.167.167,0,0,0-.05-.062c-.1-.1-.1-.1-.2,0-.061.059-.063.065,0,.122.126.12.076.123.206,0C1684.6-3092.263,1684.62-3092.283,1684.637-3092.3Zm3.283-.146c-.011.009-.026.022-.039.036-.11.11-.109.108,0,.22.036.039.059.042.1,0,.115-.124.116-.127-.018-.237a.052.052,0,0,0-.039-.018Z" transform="translate(-1682.989 3095.013)" fill="#fff"/>
            <path id="Path_26537" data-name="Path 26537" d="M1697.3-3057.366h-2.046c-.079,0-.1-.018-.087-.082,0-.025.012-.041.039-.042s.057,0,.084,0h3.3c.255,0,.509,0,.764,0,.033,0,.083-.02.092.042s-.007.085-.09.085H1697.3Z" transform="translate(-1694.096 3060.803)" fill="#fff"/>
            <path id="Path_26538" data-name="Path 26538" d="M1725.619-3055.174a.279.279,0,0,1-.1.1.268.268,0,0,1-.1-.106.311.311,0,0,1,.1-.1A.324.324,0,0,1,1725.619-3055.174Z" transform="translate(-1721.677 3058.78)" fill="#fff"/>
            <path id="Path_26539" data-name="Path 26539" d="M1707.4-3055.271a.228.228,0,0,1,.1.1.323.323,0,0,1-.1.1.225.225,0,0,1-.1-.1A.289.289,0,0,1,1707.4-3055.271Z" transform="translate(-1705.16 3058.775)" fill="#fff"/>
            <path id="Path_26540" data-name="Path 26540" d="M1721.943-3055.16a.251.251,0,0,1-.1.1.3.3,0,0,1-.1-.1.249.249,0,0,1,.1-.1A.3.3,0,0,1,1721.943-3055.16Z" transform="translate(-1718.324 3058.764)" fill="#fff"/>
            <path id="Path_26541" data-name="Path 26541" d="M1736.48-3055.06a.224.224,0,0,1-.1-.1.282.282,0,0,1,.1-.1.261.261,0,0,1,.1.094C1736.579-3055.14,1736.5-3055.06,1736.48-3055.06Z" transform="translate(-1731.673 3058.763)" fill="#fff"/>
            <path id="Path_26542" data-name="Path 26542" d="M1703.918-3055.058c-.021,0-.1-.072-.1-.1a.211.211,0,0,1,.093-.1.231.231,0,0,1,.1.1.257.257,0,0,1-.1.1Z" transform="translate(-1701.983 3058.76)" fill="#fff"/>
            <path id="Path_26543" data-name="Path 26543" d="M1729.206-3055.251a.266.266,0,0,1,.1.1c0,.025-.078.1-.1.1a.227.227,0,0,1-.1-.1A.237.237,0,0,1,1729.206-3055.251Z" transform="translate(-1725.041 3058.756)" fill="#fff"/>
            <path id="Path_26544" data-name="Path 26544" d="M1739.961-3055.162a.233.233,0,0,1,.1-.1.307.307,0,0,1,.1.1c0,.022-.081.1-.1.1A.226.226,0,0,1,1739.961-3055.162Z" transform="translate(-1734.938 3058.767)" fill="#fff"/>
            <path id="Path_26545" data-name="Path 26545" d="M1696.963-3055.159a.282.282,0,0,1-.093.1c-.02,0-.1-.073-.1-.1a.263.263,0,0,1,.092-.1C1696.876-3055.259,1696.959-3055.179,1696.963-3055.159Z" transform="translate(-1695.551 3058.761)" fill="#fff"/>
            <path id="Path_26546" data-name="Path 26546" d="M1700.45-3055.261a.248.248,0,0,1,.1.1.215.215,0,0,1-.093.1c-.022,0-.1-.075-.1-.1A.3.3,0,0,1,1700.45-3055.261Z" transform="translate(-1698.822 3058.766)" fill="#fff"/>
            <path id="Path_26547" data-name="Path 26547" d="M1718.193-3055.261a.29.29,0,0,1,.1.1c0,.023-.081.1-.1.1a.228.228,0,0,1-.094-.1A.264.264,0,0,1,1718.193-3055.261Z" transform="translate(-1714.999 3058.766)" fill="#fff"/>
            <path id="Path_26548" data-name="Path 26548" d="M1733.169-3055.271a.312.312,0,0,1,.1.1.3.3,0,0,1-.1.1.29.29,0,0,1-.1-.1A.324.324,0,0,1,1733.169-3055.271Z" transform="translate(-1728.652 3058.775)" fill="#fff"/>
            <path id="Path_26549" data-name="Path 26549" d="M1714.531-3055.056a.223.223,0,0,1-.095-.1.223.223,0,0,1,.095-.1.233.233,0,0,1,.1.1A.241.241,0,0,1,1714.531-3055.056Z" transform="translate(-1711.663 3058.759)" fill="#fff"/>
            <path id="Path_26550" data-name="Path 26550" d="M1710.995-3055.251a.263.263,0,0,1,.1.1.253.253,0,0,1-.093.1c-.02,0-.1-.078-.1-.1a.266.266,0,0,1,.1-.1Z" transform="translate(-1708.438 3058.757)" fill="#fff"/>
            <path id="Path_26551" data-name="Path 26551" d="M1697.368-3051.949a3.35,3.35,0,0,1,1.685.5,3.566,3.566,0,0,1,.522.384c0-.061,0-.134,0-.22,0-.13,0-.262,0-.395,0-.823,0-.823-.111-.823l-4.037,0c-.121,0-.121,0-.123.932v.225a3.446,3.446,0,0,1,.752-.388,3.557,3.557,0,0,1,1.31-.213Z" transform="translate(-1694.218 3056.252)" fill="#fff"/>
          </g>
        </g>
      </g>
      <g id="Group_17548" data-name="Group 17548" transform="translate(0.293 0.292)">
        <g id="Group_18730" data-name="Group 18730" transform="translate(0 0)">
          <g id="Group_18727-2" data-name="Group 18727" transform="translate(134.285 55.402)">
            <g id="Group_18726-2" data-name="Group 18726" transform="translate(2.605 7.082)">
              <g id="Group_18724-2" data-name="Group 18724" transform="translate(0.016)">
                <path id="Path_26708-2" data-name="Path 26708" d="M.4,2.1q-.059.14-.114.281t-.1.285q-.05.143-.1.287T0,3.246l1.616-.084h.007l.005,0,0,0a.014.014,0,0,0,0-.006.029.029,0,0,0,0-.006V0Q1.45.237,1.28.486T.955,1Q.8,1.26.661,1.536T.4,2.1Z" transform="translate(0.971 8.51)" fill="#1429a9"/>
                <path id="Path_26709-2" data-name="Path 26709" d="M2.293,6.435c.118-.1.388-.27.727-.478s.744-.448,1.135-.677.765-.444,1.045-.6L5.674,4.4,2.6,5.38V2.166L4.22,2.152a2,2,0,0,1,.335.024,1.448,1.448,0,0,1,.291.077,1.165,1.165,0,0,1,.248.131,1.1,1.1,0,0,1,.2.183,1.3,1.3,0,0,1,.159.23,1.5,1.5,0,0,1,.114.271,1.914,1.914,0,0,1,.068.312,2.593,2.593,0,0,1,.023.352q0,.106-.008.206t-.022.192q-.015.093-.037.179a1.717,1.717,0,0,1-.052.167l.1-.05.1-.05.1-.05.1-.051.547-.265.544-.264q.271-.132.539-.268T8.123,3.2a4.126,4.126,0,0,0-.089-.692,3.233,3.233,0,0,0-.2-.613A2.806,2.806,0,0,0,7.107.91,3.175,3.175,0,0,0,6.543.516,3.68,3.68,0,0,0,5.874.233,4.737,4.737,0,0,0,5.1.062,6.48,6.48,0,0,0,4.219,0L0,0V9.073q.23-.39.491-.75t.548-.687q.288-.328.6-.628T2.293,6.435Z" fill="#1429a9"/>
                <path id="Path_26710-2" data-name="Path 26710" d="M4.217,1.336a3,3,0,0,0,.135-.284Q4.413.9,4.461.745t.084-.33Q4.582.244,4.6.062,4.318.251,4.03.438L3.451.814l-.581.38q-.291.191-.58.389t-.559.393q-.277.2-.549.416t-.536.442q-.265.228-.519.473l-.032.031-.032.031L.031,3.4,0,3.431l.505-.017L2.35,7.419l2.634-.134H5a.031.031,0,0,0,.012,0,.015.015,0,0,0,.007-.011.049.049,0,0,0,0-.02.184.184,0,0,0-.01-.023L5,7.209l0-.008L2.861,2.643a4.175,4.175,0,0,0,.432-.275,3.5,3.5,0,0,0,.37-.31,3.082,3.082,0,0,0,.307-.343,2.9,2.9,0,0,0,.246-.38Z" transform="translate(3.483 4.083)" fill="#1429a9"/>
              </g>
              <path id="Path_26707-2" data-name="Path 26707" d="M9.185,2.419c-.22.166-.394.292-.534.39s-.247.167-.331.22-.148.087-.2.115-.1.052-.146.08c-.084.05-.316.17-.624.327S6.653,3.9,6.263,4.1s-.784.395-1.106.558-.574.293-.675.35q-.2.115-.4.235t-.4.247q-.2.128-.392.266T2.9,6.043q-.278.225-.534.474t-.489.524q-.232.275-.441.576a7.306,7.306,0,0,0-.388.63q-.132.242-.25.492t-.222.508q-.1.258-.192.522T.226,10.3l-.054.2q-.027.1-.052.2t-.049.2q-.023.1-.043.2c-.009.045-.017.078-.021.1s0,.036,0,.043.018.009.039.008l.09-.006.349-.02.348-.018L1.18,11.2l.345-.016.087,0a.064.064,0,0,0,.042-.013.085.085,0,0,0,.019-.046c0-.023.01-.055.018-.1q.041-.23.091-.456t.113-.45q.063-.223.138-.442T2.2,9.244a7.152,7.152,0,0,1,.34-.7,7.231,7.231,0,0,1,.4-.641,7.419,7.419,0,0,1,.46-.589q.244-.282.512-.542.195-.189.4-.364t.411-.339q.209-.164.422-.319t.43-.3c.21-.144.422-.284.634-.422s.423-.275.634-.412.42-.274.629-.413.414-.28.618-.425q.244-.174.479-.356t.46-.378q.225-.2.438-.407T9.878,2.2q.191-.218.361-.455t.318-.49Q10.7,1,10.83.73t.228-.549l.015-.038c.005-.013.01-.026.015-.04A.275.275,0,0,0,11.1.056.28.28,0,0,0,11.1,0a5.285,5.285,0,0,1-.362.786,4.149,4.149,0,0,1-.433.621,4.95,4.95,0,0,1-.514.522C9.606,2.094,9.4,2.253,9.185,2.419Z" transform="translate(-0.004 0.541)" fill="#11a6ea"/>
            </g>
            <path id="Path_26711-2" data-name="Path 26711" d="M6.491,5.68c.007-.058.009-.116.011-.171s0-.111,0-.166V5.181a1.467,1.467,0,0,1,.012-.159,2.854,2.854,0,0,1,.081-.384A2.6,2.6,0,0,1,6.9,3.955a2.779,2.779,0,0,1,.221-.3.277.277,0,0,1,.069-.063.086.086,0,0,1,.06-.013.115.115,0,0,1,.057.032.424.424,0,0,1,.059.072,3.19,3.19,0,0,1,.251.436,2.733,2.733,0,0,1,.169.457,2.592,2.592,0,0,1,.082.483,2.761,2.761,0,0,1-.01.51c0,.014,0,.028,0,.042s0,.028,0,.042,0,.028,0,.042v.043a.118.118,0,0,0,.06,0,.141.141,0,0,0,.049-.021c.015-.01.029-.021.043-.032a.293.293,0,0,1,.042-.03.732.732,0,0,1,.228-.077.8.8,0,0,1,.473.069.755.755,0,0,1,.2.141.99.99,0,0,1,.161.2.813.813,0,0,1,.112.465.97.97,0,0,1-.05.253c0,.014-.009.031-.014.047a.364.364,0,0,1-.016.046.108.108,0,0,1-.024.036.059.059,0,0,1-.038.016.054.054,0,0,1-.042-.014.08.08,0,0,1-.02-.038.421.421,0,0,1-.008-.049A.259.259,0,0,0,9,6.712a.586.586,0,0,0-.065-.135.4.4,0,0,0-.089-.1.354.354,0,0,0-.112-.058A.427.427,0,0,0,8.6,6.4a1.044,1.044,0,0,0-.281.039.849.849,0,0,0-.241.113.889.889,0,0,0-.2.187,1.18,1.18,0,0,0-.154.262,2.134,2.134,0,0,0-.1.273,1.744,1.744,0,0,0-.054.281,1.543,1.543,0,0,0,.046.583.793.793,0,0,0,.113.251.408.408,0,0,0,.163.141.36.36,0,0,0,.205.025.63.63,0,0,0,.236-.095,1.183,1.183,0,0,0,.182-.142,1.663,1.663,0,0,0,.155-.169c.049-.06.094-.123.138-.187s.087-.13.129-.2l.027-.043c.009-.015.018-.029.026-.044s.018-.029.026-.044.018-.029.027-.043.014-.024.021-.036a.362.362,0,0,1,.022-.037A.087.087,0,0,1,9.118,7.5a.047.047,0,0,1,.036,0,.065.065,0,0,1,.039.026.084.084,0,0,1,.013.041.291.291,0,0,1,0,.049c0,.016,0,.033,0,.047,0,.06,0,.12,0,.181s0,.12,0,.179a1.482,1.482,0,0,0,.017.178,1.008,1.008,0,0,0,.044.175l.021.059c.007.02.014.04.022.059s.016.039.024.057a.591.591,0,0,0,.029.054.576.576,0,0,0,.1.125.119.119,0,0,0,.086.038.116.116,0,0,0,.079-.05.561.561,0,0,0,.075-.138,3.948,3.948,0,0,1,.364-.692,3.133,3.133,0,0,1,.466-.553,2.861,2.861,0,0,1,.567-.413,3.09,3.09,0,0,1,.666-.271c.085-.024.172-.045.259-.061a2.162,2.162,0,0,1,.261-.032,1.769,1.769,0,0,1,.263,0A1.581,1.581,0,0,1,12.8,6.6l.033.007.033.008a.072.072,0,0,1,.027.016.059.059,0,0,1,.016.031.073.073,0,0,1,0,.045.054.054,0,0,1-.024.024.192.192,0,0,1-.035.014.227.227,0,0,0-.034.013,4.306,4.306,0,0,0-.859.6,4.356,4.356,0,0,0-.677.772,5.19,5.19,0,0,0-.506.932,6.893,6.893,0,0,0-.348,1.076c-.016.068-.029.119-.041.155s-.026.058-.043.065-.038,0-.068-.018a1.189,1.189,0,0,1-.116-.093,5.652,5.652,0,0,0-.671-.5,5.01,5.01,0,0,0-.718-.38A4.772,4.772,0,0,0,8,9.112a4.933,4.933,0,0,0-.814-.127A5.153,5.153,0,0,0,6.317,9a4.838,4.838,0,0,0-.845.163,4.959,4.959,0,0,0-.815.315,5.534,5.534,0,0,0-.783.467,1.91,1.91,0,0,1-.161.108c-.04.022-.067.029-.088.019s-.035-.038-.048-.085-.025-.114-.042-.2A7.118,7.118,0,0,0,3.23,8.661a5.561,5.561,0,0,0-.48-1A4.889,4.889,0,0,0,2.075,6.8a5.053,5.053,0,0,0-.891-.721.3.3,0,0,0-.037-.018.267.267,0,0,1-.038-.02.07.07,0,0,1-.026-.029.067.067,0,0,1,0-.046A.065.065,0,0,1,1.1,5.927a.082.082,0,0,1,.036-.015.245.245,0,0,1,.043,0h.042a2.713,2.713,0,0,1,1.11.164,3.071,3.071,0,0,1,.5.242,3.812,3.812,0,0,1,.474.335,3.336,3.336,0,0,1,.372.356,3.4,3.4,0,0,1,.307.4,3.723,3.723,0,0,1,.248.448,4.311,4.311,0,0,1,.195.488.5.5,0,0,0,.054.122.114.114,0,0,0,.064.052A.105.105,0,0,0,4.631,8.5a.452.452,0,0,0,.1-.083.729.729,0,0,0,.1-.127.886.886,0,0,0,.067-.141A1.24,1.24,0,0,0,4.936,8c.012-.052.022-.105.03-.159,0-.026.007-.053.008-.08s0-.054,0-.081,0-.054,0-.081,0-.054.007-.08a.411.411,0,0,0,0-.072c0-.026,0-.052,0-.076A.141.141,0,0,1,5,7.307a.067.067,0,0,1,.049-.034.063.063,0,0,1,.054.014.163.163,0,0,1,.039.053c.011.022.021.046.03.07a.647.647,0,0,0,.029.067c.042.078.084.156.127.233s.088.153.136.226a1.972,1.972,0,0,0,.156.208,1.376,1.376,0,0,0,.188.181.716.716,0,0,0,.243.132.363.363,0,0,0,.215,0,.4.4,0,0,0,.181-.13.83.83,0,0,0,.136-.253,1.457,1.457,0,0,0,.076-.487,1.859,1.859,0,0,0-.078-.524,1.457,1.457,0,0,0-.227-.46.891.891,0,0,0-.371-.3,1.1,1.1,0,0,0-.244-.073.406.406,0,0,0-.194.012.384.384,0,0,0-.16.11.983.983,0,0,0-.145.219.216.216,0,0,0-.01.024.152.152,0,0,1-.011.023.042.042,0,0,1-.016.016.039.039,0,0,1-.026,0,.071.071,0,0,1-.033-.016A.092.092,0,0,1,5.123,6.6a.243.243,0,0,1-.014-.035L5.1,6.526a.847.847,0,0,1-.047-.336.9.9,0,0,1,.081-.321.829.829,0,0,1,.188-.261.691.691,0,0,1,.274-.158A.944.944,0,0,1,5.8,5.41a.625.625,0,0,1,.2.019,1.027,1.027,0,0,1,.218.087A3.009,3.009,0,0,1,6.491,5.68Z" transform="translate(-1.077 -3.577)" fill="#1429a9"/>
          </g>
          <g id="Group_18711-2" data-name="Group 18711">
            <path id="Path_26505-2" data-name="Path 26505" d="M-868.9-1212.56a.7.7,0,0,1-.573.163,52.378,52.378,0,0,0-7.721.524,50.776,50.776,0,0,0-6.386,1.1c-1.423.348-2.866.616-4.294.956-2.034.483-4.026,1.1-6.017,1.719-2.117.656-4.215,1.374-6.306,2.111q-4.742,1.67-9.39,3.59c-3.12,1.3-6.259,2.551-9.371,3.866-5.011,2.118-9.993,4.3-15.013,6.4-4.4,1.838-8.836,3.593-13.338,5.169-3.745,1.312-7.523,2.519-11.382,3.468-2.052.5-4.117.933-6.183,1.367a54.252,54.252,0,0,1-15.253.833,38.3,38.3,0,0,1-21.639-8.657,54.608,54.608,0,0,1-10.863-12.008c-.043-.064-.084-.129-.129-.192-.215-.3-.662-.645-.425-.953.208-.271.659.087.984.211,1.735.662,3.49,1.257,5.256,1.834a60.073,60.073,0,0,0,8.244,2.014c2,.353,4.035.546,6.058.786a102.223,102.223,0,0,0,12.61.391c3.228-.019,6.443-.35,9.647-.684,3.25-.338,6.491-.824,9.711-1.393,3.878-.685,7.738-1.482,11.589-2.311,3.373-.726,6.73-1.535,10.081-2.359,3.4-.837,6.785-1.748,10.181-2.61,3.719-.944,7.436-1.9,11.168-2.791,3.431-.822,6.869-1.611,10.323-2.337,2.873-.6,5.759-1.136,8.67-1.553,2.757-.395,5.521-.664,8.287-.959a63.6,63.6,0,0,1,7.58-.192,43.64,43.64,0,0,1,13.282,2.137,3.451,3.451,0,0,1,.432.167C-869.017-1212.72-868.978-1212.648-868.9-1212.56Z" transform="translate(1036.001 1329.567)" fill="url(#linear-gradient)"/>
            <rect id="Rectangle_19720-2" data-name="Rectangle 19720" width="3.569" height="1.862" rx="0.931" transform="translate(89.726 67.511) rotate(-20.972)" fill="#11a6ea" opacity="0.37"/>
            <rect id="Rectangle_19719-2" data-name="Rectangle 19719" width="3.569" height="1.396" rx="0.698" transform="translate(90.74 70.119) rotate(-20.972)" fill="#11a6ea" opacity="0.37"/>
            <rect id="Rectangle_19718-2" data-name="Rectangle 19718" width="3.569" height="1.396" rx="0.698" transform="translate(94.93 68.482) rotate(-20.972)" fill="#11a6ea" opacity="0.37"/>
            <rect id="Rectangle_19721-2" data-name="Rectangle 19721" width="3.569" height="1.862" rx="0.931" transform="translate(94.071 65.919) rotate(-20.972)" fill="#11a6ea" opacity="0.37"/>
            <rect id="Rectangle_19722-2" data-name="Rectangle 19722" width="3.569" height="1.862" rx="0.931" transform="translate(98.536 64.118) rotate(-20.972)" fill="#11a6ea" opacity="0.37"/>
            <path id="Path_26515-2" data-name="Path 26515" d="M2647.833,4086.072c1.013.814,1.034,1.315.187,2.28a1.378,1.378,0,0,0-.213.842c-.012,6.2,0,12.409-.026,18.613,0,.42.328,1.213-.38,1.194-.671-.018-.336-.8-.337-1.225q-.036-9.231-.011-18.46a1.328,1.328,0,0,0-.468-1.2c-.636-.523-.485-1.213.318-2.041a.99.99,0,0,1,.47-.16A.941.941,0,0,1,2647.833,4086.072Z" transform="translate(-2513.24 -4072.973)" fill="#0056a9"/>
            <path id="Path_26521-2" data-name="Path 26521" d="M2673.92,4110.536a24.889,24.889,0,0,0-3.411.649,9.992,9.992,0,0,0-4.516,3.538,5.654,5.654,0,0,1-5.737,2.086c-.378-.064-.6-.188-.594-.635.015-3.593.009-7.186.009-10.78.082,0,.15-.028.17-.006,1.813,2.035,4.235,2.434,6.769,2.508.722.021,1.445-.041,2.168-.067C2671.056,4107.754,2672.515,4109.135,2673.92,4110.536Z" transform="translate(-2524.623 -4089.419)" fill="#0056a9"/>
            <path id="Path_26677-2" data-name="Path 26677" d="M3486.2-786.5a2.1,2.1,0,0,1,1.846,1.161c1.445,2.534,3.013,5.053,4.531,7.49.574.922,1.168,1.874,1.746,2.815l.284.461c.494.8,1,1.63,1.489,2.458l0,.006,0,.006a1.928,1.928,0,0,0,.58.665,1.912,1.912,0,0,0,.817.332l.011,0a14.11,14.11,0,0,1,2.951.884,11.461,11.461,0,0,1,2.655,1.586,7.838,7.838,0,0,1,1.265,1.268,5.947,5.947,0,0,1,.845,1.462,5.666,5.666,0,0,1,.379,1.656,7,7,0,0,1-.115,1.84,90.225,90.225,0,0,1-2.209,8.923c-.782,2.628-1.707,5.393-2.908,8.7-.042.117-5.3,14.877-6.5,18.518a45.1,45.1,0,0,0-1.471,5.562,1.311,1.311,0,0,1-.288.662,1.063,1.063,0,0,1-.7.33c-.438.053-.886.138-1.317.219-.212.04-.431.082-.647.12a4.013,4.013,0,0,1-.662.071,1.182,1.182,0,0,1-.485-.088.784.784,0,0,1-.363-.328,2.23,2.23,0,0,1-.2-1.088c-.017-1.1-.022-2.22-.026-3.3,0-.672-.005-1.367-.01-2.051-.022-1.023-.01-2.051.032-3.078-.261,1.219-.474,2.449-.636,3.68v0a47.015,47.015,0,0,0-.466,5.743,1.034,1.034,0,0,1-.219.679,1.077,1.077,0,0,1-.651.335l-1.242.244c-2.622.514-5.333,1.045-7.985,1.635-1.98.44-3.986.94-5.925,1.422-.86.214-1.751.436-2.628.65l-2.655.644c-1.961.474-3.99.964-5.979,1.464-1.288.324-2.594.667-3.858,1-1.5.395-3.06.8-4.6,1.182-3.914.966-7.75,1.906-11.653,2.788-3.617.818-6.942,1.483-10.165,2.036-2.89.5-6,1.008-9.174,1.4-2.184.272-3.994.467-5.7.613-2.059.177-3.935.279-5.735.313h-.055a2.463,2.463,0,0,1-1.426-.435,5.475,5.475,0,0,1-.95-.892c-.083-.09-.168-.185-.253-.275a2.826,2.826,0,0,1-.456-.869,8,8,0,0,1-.578-1.389,5.483,5.483,0,0,1-.245-1.731,4.949,4.949,0,0,1,.469-1.956,6.971,6.971,0,0,1,1.507-2.042c1.5-1.66,14.649-16.192,28.563-29.516l-.062-.123-2.812,2.884-.17-.445c-.18-.468-1.174-2.323-1.438-2.806a1.85,1.85,0,0,1-.263-1.182,1.514,1.514,0,0,1,.2-.554,2.181,2.181,0,0,1,.409-.487,2.136,2.136,0,0,0,.458-3.078,1.149,1.149,0,0,1-.184-.86,1.791,1.791,0,0,1,.377-.746c.446-.578.9-1.165,1.343-1.732,1.585-2.039,3.227-4.147,4.712-6.3a9.9,9.9,0,0,1,2.15-2.313,8.069,8.069,0,0,1,1.318-.814,8.659,8.659,0,0,1,1.517-.57,5.059,5.059,0,0,0,.648-.21c.13-.058.166-.1.175-.118s.022-.078-.014-.232a6.606,6.606,0,0,0-.242-.709,1.028,1.028,0,0,1-.037-.793,1,1,0,0,1,.617-.466c.335-.114.672-.25,1-.38.407-.163.828-.331,1.259-.466l.123-.038a2.96,2.96,0,0,0,.3-.1.243.243,0,0,0,.083-.049.271.271,0,0,0-.006-.122,2.294,2.294,0,0,0-.144-.434,8.014,8.014,0,0,1-.427-1.053c-.055-.155-.111-.315-.17-.47l-.11-.285.563-.217-.231-.635a.764.764,0,0,1,.026-.589.764.764,0,0,1,.435-.4l1.312-.478a.77.77,0,0,1,.264-.047.774.774,0,0,1,.725.506l.213.586.669-.256.109.285c.132.344.267.689.4,1.022.324.827.63,1.609.912,2.418a1.026,1.026,0,0,0,.167.335.13.13,0,0,0,.111.049.871.871,0,0,0,.324-.09c.534-.234,1.088-.441,1.623-.64.466-.174.949-.355,1.412-.551a1.361,1.361,0,0,1,.527-.127.7.7,0,0,1,.521.217,1.127,1.127,0,0,1,.254.486l1.6,3.675c2.378-1.872,4.154-3.219,4.931-3.808.24-.182.43-.326.463-.354,1.011-.919,2.041-1.852,3.036-2.754,1.826-1.654,3.713-3.364,5.561-5.055,3.807-3.487,7.661-7.036,11.454-10.548.148-.137.3-.282.439-.423a6.377,6.377,0,0,1,1.585-1.256A2.54,2.54,0,0,1,3486.2-786.5Zm9.366,14.686c-.479-.82-.986-1.644-1.478-2.44l-.284-.461c-.577-.94-1.17-1.892-1.743-2.812-1.521-2.442-3.093-4.966-4.544-7.51a1.5,1.5,0,0,0-1.316-.853,1.936,1.936,0,0,0-.866.226,5.838,5.838,0,0,0-1.431,1.145c-.146.144-.3.293-.452.436-3.794,3.513-7.648,7.062-11.455,10.55-1.848,1.693-3.736,3.4-5.563,5.057-1,.9-2.027,1.836-3.039,2.756-.03.027-.1.083-.5.386-.809.613-2.7,2.05-5.233,4.046l-.31.245-1.936-4.441-.006-.022a.572.572,0,0,0-.11-.244.1.1,0,0,0-.082-.029.78.78,0,0,0-.289.078c-.477.2-.965.384-1.437.56-.527.2-1.072.4-1.591.628a1.422,1.422,0,0,1-.568.142.731.731,0,0,1-.561-.247,1.543,1.543,0,0,1-.293-.545c-.278-.8-.582-1.575-.9-2.4-.1-.242-.192-.491-.29-.741l-.679.261-.425-1.17a.162.162,0,0,0-.151-.106.152.152,0,0,0-.054.01l-1.312.477a.161.161,0,0,0-.09.083.157.157,0,0,0-.005.122l.436,1.2-.557.214c.025.067.048.134.071.2a7.359,7.359,0,0,0,.4.983l.005.011,0,.012a1.347,1.347,0,0,1,.146,1.063c-.132.283-.422.374-.759.477l-.119.036c-.408.129-.819.293-1.216.452-.334.133-.679.271-1.028.39-.207.071-.252.128-.262.149s-.026.1.057.317c.246.651.408,1.08.228,1.433a.919.919,0,0,1-.468.4,5.344,5.344,0,0,1-.736.241,7.561,7.561,0,0,0-2.627,1.281,9.284,9.284,0,0,0-2.019,2.175c-1.495,2.171-3.141,4.287-4.733,6.333-.44.566-.9,1.152-1.342,1.729-.34.442-.319.659-.162.905a3.626,3.626,0,0,1,.47,1.041,2.49,2.49,0,0,1,.055,1.017,2.62,2.62,0,0,1-.36.949,3.963,3.963,0,0,1-.726.852,1.172,1.172,0,0,0-.419.68,1.264,1.264,0,0,0,.193.8c.164.3.9,1.669,1.282,2.456l2.765-2.835.192.382.169.335.187.372.1.2-.164.156c-13.981,13.372-27.236,28.02-28.7,29.646l-.008.008-.007.007a4.879,4.879,0,0,0-1.033,6.423l.01.018.006.019a2.358,2.358,0,0,0,.332.676c.09.094.177.191.262.285a2.5,2.5,0,0,0,1.924,1.127h.044c1.787-.033,3.648-.134,5.694-.311,1.7-.146,3.5-.34,5.679-.611,3.159-.394,6.262-.906,9.146-1.4,3.211-.551,6.525-1.215,10.133-2.03,3.9-.881,7.73-1.82,11.64-2.785,1.533-.378,3.085-.786,4.587-1.18,1.266-.332,2.575-.676,3.866-1,1.991-.5,4.021-.991,5.984-1.466.87-.21,1.771-.428,2.655-.643s1.765-.435,2.625-.649c1.943-.484,3.952-.984,5.941-1.426,2.657-.591,5.373-1.123,8-1.638l1.242-.244a.536.536,0,0,0,.3-.132.468.468,0,0,0,.072-.295h0a47.92,47.92,0,0,1,.472-5.817,47.1,47.1,0,0,1,1.528-7.2l.6.121a49.025,49.025,0,0,0-.307,6.546v0c.006.685.009,1.382.012,2.055,0,1.08.008,2.2.025,3.295a2.074,2.074,0,0,0,.114.791c.026.045.066.113.32.113a3.439,3.439,0,0,0,.559-.062c.211-.036.428-.078.637-.117.442-.084.9-.171,1.359-.226a.461.461,0,0,0,.318-.13.772.772,0,0,0,.143-.371v0a46.036,46.036,0,0,1,1.491-5.638c1.211-3.644,6.467-18.417,6.51-18.533,1.2-3.3,2.118-6.054,2.9-8.67a89.739,89.739,0,0,0,2.195-8.863,5.433,5.433,0,0,0-2.158-5.635,10.816,10.816,0,0,0-2.514-1.5,13.482,13.482,0,0,0-2.819-.844,2.526,2.526,0,0,1-1.074-.438,2.531,2.531,0,0,1-.761-.872Zm-11.81-10.456a.747.747,0,0,1,.544.217,1.358,1.358,0,0,1,.3,1,20.025,20.025,0,0,1-.359,3.113c-.06.349-.121.71-.174,1.064-.136.91-.294,1.831-.447,2.722-.135.781-.273,1.589-.4,2.385a1.171,1.171,0,0,1-.263.634,1.1,1.1,0,0,1-.633.325c-.99.2-2,.381-2.975.555-.992.176-2.019.359-3.021.565h0a56.479,56.479,0,0,0-9.252,2.717l-.315-.51c.439-.4.884-.8,1.315-1.2.97-.884,1.973-1.8,2.973-2.683l.973-.862c3.061-2.711,6.225-5.515,9.229-8.388l.141-.135a8.27,8.27,0,0,1,1.519-1.242,1.726,1.726,0,0,1,.847-.284Zm-7.551,11.987c1.011-.207,2.041-.39,3.037-.568.973-.173,1.978-.352,2.959-.552a.5.5,0,0,0,.3-.134.614.614,0,0,0,.116-.322c.124-.8.263-1.611.4-2.394.153-.887.31-1.806.446-2.709.054-.36.115-.723.175-1.076a19.517,19.517,0,0,0,.351-3.017c0-.4-.082-.531-.119-.569a.136.136,0,0,0-.11-.036,1.152,1.152,0,0,0-.539.2,7.643,7.643,0,0,0-1.4,1.155l-.143.137c-3.013,2.881-6.181,5.689-9.246,8.4l-.973.862c-1,.883-2,1.8-2.965,2.678l-.145.133a57.133,57.133,0,0,1,7.864-2.192Zm12.031-9.811a.948.948,0,0,1,.739.508l.02.027a37.3,37.3,0,0,1,2.569,4.406l.3.576c.193.366.376.743.553,1.108.188.387.383.787.587,1.17a.754.754,0,0,1,.075.737.738.738,0,0,1-.676.277h-2.471v-.005l-.264,0c-.184,0-.374-.005-.56-.005-.275,0-.5.006-.708.018-.041,0-.081,0-.119,0a.814.814,0,0,1-.713-.3,1.265,1.265,0,0,1-.176-.722c-.022-1.328.046-2.669.112-3.966.049-.957.1-1.946.112-2.918h0c0-.029,0-.063,0-.1a1.176,1.176,0,0,1,.03-.394.568.568,0,0,1,.425-.394.7.7,0,0,1,.167-.021Zm4.284,8.195a.822.822,0,0,0-.053-.112c-.209-.393-.406-.8-.6-1.19-.175-.36-.356-.732-.544-1.09-.1-.193-.2-.389-.3-.578a36.55,36.55,0,0,0-2.525-4.335l-.02-.028c-.067-.094-.179-.252-.242-.252h-.013a1.216,1.216,0,0,0,0,.169c0,.044,0,.089,0,.135h0c-.013.983-.064,1.979-.112,2.942-.066,1.287-.134,2.618-.112,3.925a.748.748,0,0,0,.061.375c.032.045.151.051.219.051.025,0,.053,0,.083,0,.221-.013.458-.019.744-.019.19,0,.383,0,.569.005s.375.005.56.005h.306v0h1.861a1.091,1.091,0,0,0,.114-.005Zm-37.92,8,.115.271,1.482,3.5-.181.145c-4.262,3.4-8.343,6.823-12.13,10.162l-.325.287-.16-.4c-.7-1.777-1.4-3.592-2.067-5.348-.244-.64-.5-1.3-.748-1.953l-.434-1.13,1.229-.472,3.207-1.232c3.19-1.227,6.489-2.5,9.741-3.726Zm.854,3.585-1.187-2.807c-3.162,1.2-6.363,2.428-9.463,3.62l-3.207,1.232-.659.253.215.56c.25.651.5,1.314.748,1.954.62,1.621,1.258,3.293,1.906,4.938,3.648-3.207,7.563-6.485,11.647-9.75Zm5.606,3.91a3.933,3.933,0,0,1,1.538.311,3.93,3.93,0,0,1,1.255.847,3.938,3.938,0,0,1,.847,1.256,3.925,3.925,0,0,1,.311,1.538,3.927,3.927,0,0,1-.311,1.538,3.949,3.949,0,0,1-.847,1.256,3.947,3.947,0,0,1-1.255.847,3.932,3.932,0,0,1-1.539.311,3.931,3.931,0,0,1-1.538-.311,3.938,3.938,0,0,1-1.256-.847,3.924,3.924,0,0,1-.846-1.256,3.919,3.919,0,0,1-.312-1.538,3.934,3.934,0,0,1,.311-1.538,3.947,3.947,0,0,1,.847-1.256,3.936,3.936,0,0,1,1.257-.846,3.921,3.921,0,0,1,1.537-.311Zm0,7.293a3.344,3.344,0,0,0,3.34-3.341,3.344,3.344,0,0,0-3.34-3.341,3.345,3.345,0,0,0-3.342,3.341,3.345,3.345,0,0,0,3.341,3.341Zm-12.026.931a3.385,3.385,0,0,1,1.327.268,3.391,3.391,0,0,1,1.083.73,3.388,3.388,0,0,1,.73,1.084,3.393,3.393,0,0,1,.269,1.327,3.394,3.394,0,0,1-.269,1.327,3.406,3.406,0,0,1-.73,1.083,3.394,3.394,0,0,1-1.083.73,3.391,3.391,0,0,1-1.327.269,3.391,3.391,0,0,1-1.327-.269,3.387,3.387,0,0,1-1.083-.73,3.382,3.382,0,0,1-.731-1.083,3.4,3.4,0,0,1-.269-1.327,3.4,3.4,0,0,1,.269-1.327,3.384,3.384,0,0,1,.731-1.084,3.386,3.386,0,0,1,1.083-.73,3.393,3.393,0,0,1,1.327-.268Zm0,6.206a2.8,2.8,0,0,0,2.8-2.8,2.8,2.8,0,0,0-2.8-2.8,2.8,2.8,0,0,0-2.8,2.8A2.8,2.8,0,0,0,3449.038-741.974Zm-10.862,3.569a2.772,2.772,0,0,1,1.084.22,2.785,2.785,0,0,1,.886.6,2.782,2.782,0,0,1,.6.885,2.77,2.77,0,0,1,.22,1.085,2.778,2.778,0,0,1-.22,1.085,2.793,2.793,0,0,1-.6.886,2.786,2.786,0,0,1-.886.6,2.763,2.763,0,0,1-1.084.22,2.766,2.766,0,0,1-1.084-.22,2.78,2.78,0,0,1-.886-.6,2.8,2.8,0,0,1-.6-.886,2.778,2.778,0,0,1-.219-1.085,2.778,2.778,0,0,1,.219-1.085,2.793,2.793,0,0,1,.6-.885,2.785,2.785,0,0,1,.886-.6,2.767,2.767,0,0,1,1.086-.22Zm0,4.965a2.181,2.181,0,0,0,2.178-2.177,2.181,2.181,0,0,0-2.178-2.178,2.18,2.18,0,0,0-2.177,2.178,2.18,2.18,0,0,0,2.178,2.177Z" transform="translate(-3352.067 826.508)" fill="#0056a9"/>
            <g id="Group_18708-2" data-name="Group 18708">
              <path id="Path_26506-2" data-name="Path 26506" d="M.043,10.874c.94-.336,1.828-.647,2.711-.969,2.668-.975,5.337-1.946,7.994-2.948a.825.825,0,0,0,.457-.587c.033-2.017.02-4.035.016-6.053A1.928,1.928,0,0,0,11.152,0c-.989.359-1.947.7-2.9,1.054C5.7,1.986,3.149,2.928.59,3.84A.747.747,0,0,0,0,4.681c.027,1.853.011,3.705.012,5.559C.013,10.423.029,10.6.043,10.874Z" transform="translate(50.657 95.122) rotate(-25)" fill="#0056a9"/>
              <g id="Group_18680-2" data-name="Group 18680" transform="translate(44.626 64.581) rotate(3)">
                <path id="Path_26440-2" data-name="Path 26440" d="M10.816,0Q5.621,1.89.439,3.814c-.181.067-.42.307-.422.471C-.009,6.345,0,8.406.006,10.466a1.482,1.482,0,0,0,.078.295c.97-.349,1.916-.685,2.858-1.03,2.572-.942,5.138-1.9,7.718-2.82a.7.7,0,0,0,.551-.8C11.188,4.713,11.08-.095,10.816,0Z" transform="matrix(0.891, -0.454, 0.454, 0.891, 0, 15.053)" fill="#0056a9"/>
                <path id="Path_26441-2" data-name="Path 26441" d="M11.15,0C9.457.614,7.815,1.205,6.175,1.8,4.318,2.483,2.471,3.187.6,3.836a.772.772,0,0,0-.6.891C.028,6.742.013,8.758.013,10.89c.73-.259,1.381-.485,2.028-.721l8.645-3.161c.3-.11.552-.2.548-.62-.02-2.04-.012-4.079-.016-6.119A1.557,1.557,0,0,0,11.15,0Z" transform="matrix(0.891, -0.454, 0.454, 0.891, 3.589, 22.572)" fill="#11a6ea"/>
                <path id="Path_26443-2" data-name="Path 26443" d="M11.191,0C9.37.666,7.654,1.292,5.939,1.92,4.123,2.585,2.311,3.259.492,3.915.194,4.022,0,4.123,0,4.5c.017,2.017.009,4.035.012,6.053a2.415,2.415,0,0,0,.053.318c.209-.061.4-.1.583-.171Q5.692,8.856,10.73,7c.186-.069.439-.305.442-.466C11.2,4.392,11.191,2.256,11.191,0Z" transform="matrix(0.891, -0.454, 0.454, 0.891, 12.998, 12.143)" fill="#0056a9"/>
                <path id="Path_26554-2" data-name="Path 26554" d="M11.191,0C9.37.666,7.654,1.292,5.939,1.92,4.123,2.585,2.311,3.259.492,3.915.194,4.022,0,4.123,0,4.5c.017,2.017.009,4.035.012,6.053a2.415,2.415,0,0,0,.053.318c.209-.061.4-.1.583-.171Q5.692,8.856,10.73,7c.186-.069.439-.305.442-.466C11.2,4.392,11.191,2.256,11.191,0Z" transform="matrix(0.891, -0.454, 0.454, 0.891, 9.365, 5.082)" fill="#11a6ea"/>
                <path id="Path_26444-2" data-name="Path 26444" d="M.077,10.874c.913-.331,1.8-.65,2.68-.972,2.652-.969,5.3-1.934,7.95-2.921.189-.07.452-.3.455-.455.03-2.14.02-4.281.02-6.525-.934.335-1.8.638-2.657.952C5.836,1.934,3.145,2.914.465,3.919a.773.773,0,0,0-.444.527C-.01,6.488,0,8.529.006,10.569a1.723,1.723,0,0,0,.072.3Z" transform="matrix(0.891, -0.454, 0.454, 0.891, 16.731, 19.451)" fill="#11a6ea"/>
              </g>
              <path id="Path_26611-2" data-name="Path 26611" d="M15771.3,15858.906l2.613,5.891,3.475-2.719-2.428-5.859Z" transform="translate(-15702.843 -15787.096)" fill="#11a6ea"/>
              <path id="Path_26612-2" data-name="Path 26612" d="M15771.3,15863.654l2.527,5.613,2.6-2.328-2.6-5.111Z" transform="translate(-15698.188 -15795.243)" fill="#0056a9"/>
              <path id="Path_26613-2" data-name="Path 26613" d="M15771.3,15869.727l2.613,5.879,3.906-2.588-2.043-4Z" transform="translate(-15706.103 -15804.735)" fill="#0056a9"/>
              <path id="Path_26614-2" data-name="Path 26614" d="M15777.6,15885.717l1.857,3.439,2.547-1.73-1.357-2.252-1.9.381Z" transform="translate(-15706.764 -15821.673)" fill="#11a6ea"/>
              <path id="Path_26615-2" data-name="Path 26615" d="M15777.6,15884.07l2.641,4.83.867-1.1-2.271-4.582-.568.4Z" transform="translate(-15701.332 -15817.691)" fill="#11a6ea"/>
              <path id="Path_26616-2" data-name="Path 26616" d="M15776.8,15889.151l1.172,2.035,1.24-.8-.6-1.4h-.8Z" transform="translate(-15702.199 -15825.804)" fill="#0056a9"/>
              <path id="Path_26617-2" data-name="Path 26617" d="M15770.4,15857.342l2.748,5.934,3.229-3.264-2.568-5.6Z" transform="translate(-15698.664 -15778.281)" fill="#0056a9"/>
              <path id="Subtraction_6-2" data-name="Subtraction 6" d="M2062.711-2855.3a11.055,11.055,0,0,1-2.437-.278l-.174-.043-2.6-2.768a47.627,47.627,0,0,1-3.9-4.751,36.984,36.984,0,0,1-3.156-5.292,50.351,50.351,0,0,1-3.868-9.871c-.025-.1-.052-.2-.081-.3-.126-.009-.249-.015-.37-.015l-2.235.024c-1.686.02-3.412.042-5.111.042h-.355a2.392,2.392,0,0,1-1.328-.522,4.175,4.175,0,0,1-.422-.385c-.12.148-.247.292-.378.429a1.538,1.538,0,0,1-1.068.507h0a3.392,3.392,0,0,1-1.85-.828,1.11,1.11,0,0,0-.648-.214,1.848,1.848,0,0,0-.635.134c-1.281.479-2.639.992-3.975,1.545a18.179,18.179,0,0,1-3.167.991,15.877,15.877,0,0,1-3.284.349c-.492,0-.989-.024-1.479-.071a9.119,9.119,0,0,1-2.887-.736,4.229,4.229,0,0,1-2.563-3.286,4.083,4.083,0,0,1,.29-2.092,4.771,4.771,0,0,1,1.4-1.839,9.342,9.342,0,0,1,4.126-1.834,18.764,18.764,0,0,1,3.926-.434,16.482,16.482,0,0,1,2.61.207c1.357.219,2.707.372,4.2.532a2.315,2.315,0,0,0,.25.015h0a1.339,1.339,0,0,0,.563-.113,1.355,1.355,0,0,0,.474-.382,4.88,4.88,0,0,1,.8-.815,1.634,1.634,0,0,1,.978-.372h0a2.132,2.132,0,0,1,1.377.613l0-.005a2.452,2.452,0,0,1,1.875-1.406c1.869-.414,3.7-.9,5.629-1.411q.9-.241,1.8-.475a49.234,49.234,0,0,1,.437-5.98,46.4,46.4,0,0,1,3.432-12.277,49.666,49.666,0,0,1,2.74-5.368l-.132-.119c-.354-.315-.688-.614-1.009-.926l-.5-.489c-1.41-1.374-2.824-2.751-4.177-4.143a2.486,2.486,0,0,1-.523-1.4,4.366,4.366,0,0,1-.027-.446,2.824,2.824,0,0,1-.523.058,1.724,1.724,0,0,1-1.723-1.425,2.119,2.119,0,0,1-.115-.635c.008-.394-.084-.81-.829-1.166l-.326-.155c-.965-.461-1.963-.937-2.973-1.336a18.385,18.385,0,0,1-6.53-4.209,8.217,8.217,0,0,1-1.542-2.181,9.888,9.888,0,0,1-.812-2.531,3.525,3.525,0,0,1,.527-2.443,4.088,4.088,0,0,1,.845-.989,3.749,3.749,0,0,1,1.175-.686,4.839,4.839,0,0,1,1.637-.29,4.6,4.6,0,0,1,1.4.218,15.8,15.8,0,0,1,4.151,2.008,14.887,14.887,0,0,1,1.786,1.445,15.466,15.466,0,0,1,1.576,1.737c.486.624.972,1.265,1.444,1.885.406.534.817,1.077,1.229,1.61a3.971,3.971,0,0,0,.856.871,1.623,1.623,0,0,0,.917.281,2.814,2.814,0,0,0,.41-.031,2.917,2.917,0,0,1,.429-.035,1.794,1.794,0,0,1,1.332.534,1.929,1.929,0,0,1,.458,1.358l.321-.088a2.72,2.72,0,0,1,.661-.093,1.977,1.977,0,0,1,1.375.55,2.867,2.867,0,0,0,.672.373,6.058,6.058,0,0,1,.7.348c1.2.741,2.406,1.5,3.567,2.237l.8.5c.251.159.5.325.763.5a48.79,48.79,0,0,1,4.56-3.97,46.707,46.707,0,0,1,5.351-3.537,47.009,47.009,0,0,1,5.779-2.759,50.563,50.563,0,0,1,5.717-1.872l-.028-.718c-.036-.89-.07-1.728-.075-2.573-.006-.887.018-1.789.04-2.662l.029-1.2a2.615,2.615,0,0,1-.095-.93,2.326,2.326,0,0,1,.3-.952,2.971,2.971,0,0,1,.69-.795c-.128-.087-.255-.181-.376-.28a1.655,1.655,0,0,1-.572-.86,1.651,1.651,0,0,1,.125-1.053,4.644,4.644,0,0,1,.571-.928,1.2,1.2,0,0,0,.223-1.24c-.457-1.292-.9-2.542-1.4-3.736a21.278,21.278,0,0,1-1.207-3.7,13.174,13.174,0,0,1-.283-3.942,11.252,11.252,0,0,1,.8-3.62,4.722,4.722,0,0,1,.678-1.108,4.192,4.192,0,0,1,.9-.817,3.924,3.924,0,0,1,2.19-.665,4.165,4.165,0,0,1,1.849.439,4.818,4.818,0,0,1,1.6,1.3,8.491,8.491,0,0,1,1.4,2.6,17.82,17.82,0,0,1,.671,2.76,13.861,13.861,0,0,1,.179,2.92,26.485,26.485,0,0,1-.284,2.861c-.149,1.031-.253,2.092-.353,3.118l-.083.849a1.034,1.034,0,0,0,.083.56,1.467,1.467,0,0,0,.4.481,5.021,5.021,0,0,1,.805.8,1.626,1.626,0,0,1,.377.946,2,2,0,0,1-.649,1.4,3.265,3.265,0,0,1,.978.66,1.74,1.74,0,0,1,.445,1.342,17.656,17.656,0,0,1,1.024,4.054,23.932,23.932,0,0,0,.57,2.728c.046.158.106.328.175.525l0,.007.249.039a8.833,8.833,0,0,0,1.308.14,41.617,41.617,0,0,1,5.746.453,42.258,42.258,0,0,1,5.542,1.222,45.765,45.765,0,0,1,5.332,1.931,52.457,52.457,0,0,1,5.139,2.581c.13.075.263.146.41.225l.434-.428c.467-.465.951-.931,1.418-1.38a46.318,46.318,0,0,0,3.257-3.352,2.98,2.98,0,0,1,2.41-1.164h.082a2.105,2.105,0,0,1,.19-1.576,1.636,1.636,0,0,1,.826-.6,5.294,5.294,0,0,1,1.048-.248,1.367,1.367,0,0,0,.664-.281,1.551,1.551,0,0,0,.41-.562c.564-1.212,1.217-2.637,1.834-4.118a17.088,17.088,0,0,1,1.617-3.01,16.62,16.62,0,0,1,2.2-2.617,12.034,12.034,0,0,1,1.469-1.235,7.842,7.842,0,0,1,1.748-.941,5.128,5.128,0,0,1,1.81-.35h0a4.026,4.026,0,0,1,3.163,1.48,4.049,4.049,0,0,1,.879,3.315,12.455,12.455,0,0,1-.835,2.822,14.86,14.86,0,0,1-1.952,3.126,16.113,16.113,0,0,1-2.643,2.563l-1.458,1.118c-.7.534-1.417,1.085-2.118,1.634a2.875,2.875,0,0,0-.832.908,1.694,1.694,0,0,0-.135,1.084,1.885,1.885,0,0,1-.305,1.609,2.066,2.066,0,0,1-1.5.607,2.992,2.992,0,0,1,.1,1.108,3.363,3.363,0,0,1-.659,1.535c-.97,1.381-1.855,2.905-2.712,4.381-.348.6-.7,1.206-1.056,1.8-.008.014-.016.028-.023.042l.015.016c.214.235.41.452.615.667a26.83,26.83,0,0,1,3.011,3.845c.236.346.488.714.766,1.112l.18.259-.107.3a11.011,11.011,0,0,1-3.115,4.5,9.47,9.47,0,0,1-5.016,1.534h-.325l-.182-.271a17.756,17.756,0,0,0-2.291-2.831l-.327-.35a37.473,37.473,0,0,0-4.167-3.828,35.183,35.183,0,0,0-22.255-7.86c-1.269,0-2.573.064-3.877.189a35.519,35.519,0,0,0-24.314,13.513,36.7,36.7,0,0,0-7.33,28.2c1.388,7.125,7.26,16.365,12.077,21.425l.183.192-.015.263c-.01.173-.268,4.22-2.348,5.891A5.58,5.58,0,0,1,2062.711-2855.3Zm-1.973-1.424a10.141,10.141,0,0,0,1.974.2,4.6,4.6,0,0,0,2.784-.754c1.276-1.025,1.762-3.57,1.874-4.752-5.018-5.347-10.774-14.5-12.208-21.864a37.924,37.924,0,0,1,7.573-29.153,36.743,36.743,0,0,1,25.157-13.975c1.343-.129,2.687-.195,3.994-.195a36.374,36.374,0,0,1,23.011,8.122,38.646,38.646,0,0,1,4.3,3.954l.324.348a18.694,18.694,0,0,1,2.221,2.7,8.011,8.011,0,0,0,3.976-1.278,9.411,9.411,0,0,0,2.581-3.648c-.207-.3-.4-.581-.585-.851a25.388,25.388,0,0,0-2.886-3.692c-.212-.223-.415-.446-.629-.682l-.572-.626.246-.515a3.478,3.478,0,0,1,.179-.36c.359-.6.709-1.2,1.047-1.784.876-1.509,1.777-3.056,2.793-4.5a2.142,2.142,0,0,0,.43-.969,1.608,1.608,0,0,0-.17-.852,1.2,1.2,0,0,1-.042-.73l.047-.6.6,0c.133.008.258.012.373.012.652,0,.832-.128.879-.185a.866.866,0,0,0,.036-.6,2.912,2.912,0,0,1,.263-1.889,4.066,4.066,0,0,1,1.171-1.3c.684-.538,1.407-1.091,2.108-1.627l1.455-1.115a14.862,14.862,0,0,0,2.442-2.368,13.624,13.624,0,0,0,1.79-2.865,11.333,11.333,0,0,0,.743-2.534,2.836,2.836,0,0,0-.62-2.314,2.794,2.794,0,0,0-2.176-1.037,3.968,3.968,0,0,0-1.416.268,6.665,6.665,0,0,0-1.479.795,10.968,10.968,0,0,0-1.326,1.115,15.465,15.465,0,0,0-2.04,2.429,16.019,16.019,0,0,0-1.5,2.794c-.625,1.5-1.285,2.94-1.847,4.149a2.793,2.793,0,0,1-.752,1.007,2.6,2.6,0,0,1-1.276.545,4.184,4.184,0,0,0-.821.2.422.422,0,0,0-.219.15c-.107.16.061.9.116,1.143l.014.063v.065a.852.852,0,0,1-.16.509l-.18.455-.465-.1a3.941,3.941,0,0,0-.6-.05,1.775,1.775,0,0,0-1.474.731,46.958,46.958,0,0,1-3.342,3.442c-.462.445-.941.905-1.4,1.366l-1.08,1.066-.673-.365c-.222-.118-.39-.209-.557-.305a51.279,51.279,0,0,0-5.02-2.521,44.552,44.552,0,0,0-5.189-1.88,40.878,40.878,0,0,0-5.381-1.185,40.236,40.236,0,0,0-5.59-.439,10.279,10.279,0,0,1-1.485-.157c-.189-.03-.382-.06-.575-.084l-.379-.047-.245-.715c-.077-.219-.144-.407-.2-.6a24.923,24.923,0,0,1-.6-2.867,15.967,15.967,0,0,0-1.007-3.917l-.086-.192.05-.2a.489.489,0,0,0-.107-.436,2.1,2.1,0,0,0-.624-.4,4.573,4.573,0,0,1-.581-.35l-.2-.131-.681-.432.6-.537c.681-.609.821-.88.819-1a.421.421,0,0,0-.1-.22,3.91,3.91,0,0,0-.617-.612,2.69,2.69,0,0,1-.748-.917,2.247,2.247,0,0,1-.193-1.219l.081-.826c.1-1.051.207-2.132.36-3.186a25.015,25.015,0,0,0,.271-2.734,12.648,12.648,0,0,0-.164-2.668,16.584,16.584,0,0,0-.625-2.574,7.281,7.281,0,0,0-1.2-2.223,3.572,3.572,0,0,0-1.187-.969,2.931,2.931,0,0,0-1.3-.31,2.715,2.715,0,0,0-1.513.459,2.971,2.971,0,0,0-.636.577,3.534,3.534,0,0,0-.5.824,10.052,10.052,0,0,0-.7,3.229,11.983,11.983,0,0,0,.257,3.575,20.025,20.025,0,0,0,1.139,3.492c.517,1.232.964,2.5,1.4,3.723a2.459,2.459,0,0,1-.376,2.475,3.429,3.429,0,0,0-.436.7.432.432,0,0,0-.039.263.5.5,0,0,0,.143.176,4.042,4.042,0,0,0,.752.486.738.738,0,0,1,.377.572l.119.442-.371.334a2.48,2.48,0,0,0-.9.809,1.067,1.067,0,0,0-.141.439,1.479,1.479,0,0,0,.08.59l.07.206-.055.182-.024,1.014c-.025.929-.047,1.818-.042,2.692.006.831.04,1.657.075,2.531l.063,1.708-.478.12a49.042,49.042,0,0,0-6.046,1.946,45.735,45.735,0,0,0-5.626,2.688,45.239,45.239,0,0,0-5.21,3.443,47.562,47.562,0,0,0-4.792,4.215l-.352.353-.777-.513c-.3-.2-.549-.367-.795-.523l-.778-.492c-1.175-.745-2.371-1.5-3.559-2.234a4.758,4.758,0,0,0-.53-.266,3.991,3.991,0,0,1-1.012-.583.814.814,0,0,0-.565-.25,1.507,1.507,0,0,0-.358.053c-.233.06-.45.123-.7.2l-1.167.336-.01-1.005a2.648,2.648,0,0,1,.007-.394,1.021,1.021,0,0,0-.117-.76.519.519,0,0,0-.358-.143,2.223,2.223,0,0,0-.317.022,3.675,3.675,0,0,1-.567.045h0a2.863,2.863,0,0,1-1.657-.508,5.127,5.127,0,0,1-1.124-1.133c-.4-.518-.815-1.063-1.216-1.591-.476-.626-.96-1.263-1.443-1.885a14.345,14.345,0,0,0-1.45-1.6,13.741,13.741,0,0,0-1.636-1.323,14.569,14.569,0,0,0-3.832-1.852,3.375,3.375,0,0,0-1.032-.162,3.651,3.651,0,0,0-1.224.217,2.55,2.55,0,0,0-.8.465,2.963,2.963,0,0,0-.606.71,2.312,2.312,0,0,0-.355,1.6,8.661,8.661,0,0,0,.708,2.2,6.99,6.99,0,0,0,1.313,1.855,17.2,17.2,0,0,0,6.109,3.93c1.049.415,2.066.9,3.05,1.369l.325.156a2.351,2.351,0,0,1,1.525,2.262.964.964,0,0,0,.053.26c.177.584.386.584.554.584a1.532,1.532,0,0,0,.383-.056c.111-.03.212-.065.341-.11l.286-.1.852-.287-.047.9c-.009.157-.022.3-.035.44a2.639,2.639,0,0,0-.015.631,2.1,2.1,0,0,0,.194.745c1.345,1.385,2.752,2.754,4.112,4.079l.545.531c.307.3.628.585.969.889l.884.8-.259.429a48.337,48.337,0,0,0-2.925,5.659,45.2,45.2,0,0,0-3.342,11.955,48.2,48.2,0,0,0-.429,6.288v.471l-.455.119c-.753.2-1.5.394-2.223.585-1.972.524-3.811,1.011-5.7,1.431a1.257,1.257,0,0,0-1.046.754,4.387,4.387,0,0,1-.325.545l-.126.2-.408.658-.544-.55c-.509-.514-.862-.776-1.048-.776a.4.4,0,0,0-.227.1,3.682,3.682,0,0,0-.611.621,2.6,2.6,0,0,1-.929.742,2.522,2.522,0,0,1-1.042.225,3.559,3.559,0,0,1-.414-.022c-1.513-.162-2.879-.317-4.265-.541a15.212,15.212,0,0,0-2.405-.192,17.546,17.546,0,0,0-3.677.406,8.179,8.179,0,0,0-3.615,1.589,3.547,3.547,0,0,0-1.043,1.369,2.848,2.848,0,0,0-.2,1.46,3.025,3.025,0,0,0,1.852,2.327,7.893,7.893,0,0,0,2.5.635c.458.043.916.065,1.368.065a14.706,14.706,0,0,0,3.029-.322,16.974,16.974,0,0,0,2.955-.926c1.351-.56,2.722-1.078,4-1.556a3.035,3.035,0,0,1,1.063-.216,2.309,2.309,0,0,1,1.36.433,3.656,3.656,0,0,0,1.122.608.315.315,0,0,0,.2-.109,6.7,6.7,0,0,0,.732-.918l.431-.651.528.575c.086.094.17.193.25.289a3.01,3.01,0,0,0,.5.515,1.247,1.247,0,0,0,.586.269h.355c1.693,0,3.415-.021,5.08-.041l2.227-.024c.228,0,.419.013.621.028l.727.042.183.648c.063.224.107.375.144.526a49.484,49.484,0,0,0,3.782,9.629,35.825,35.825,0,0,0,3.05,5.114,46.526,46.526,0,0,0,3.8,4.627Z" transform="translate(-2014.7 2967.288)" fill="#11a6ea"/>
              <path id="Path_26619-2" data-name="Path 26619" d="M19760.723,15343.816s-26.85-6.332-42.531,18.986c0,.105,14.182-21.637,42.1-17.379a1.116,1.116,0,0,0,.578-.648A1.768,1.768,0,0,0,19760.723,15343.816Z" transform="translate(-19674.971 -15308.267)" fill="#11a6ea"/>
              <path id="Path_26620-2" data-name="Path 26620" d="M.608,0S10.6,3.476,16.785,10.863A50.674,50.674,0,0,0,.253,1.178S-.073.728.015.433.608,0,.608,0Z" transform="translate(92.788 38.358) rotate(4.012)" fill="#11a6ea"/>
              <path id="Path_26625-2" data-name="Path 26625" d="M.608,0S10.6,3.476,16.785,10.863A50.678,50.678,0,0,0,.253,1.178S-.074.728.015.433.608,0,.608,0Z" transform="matrix(-0.906, -0.423, 0.423, -0.906, 48.54, 108.193)" fill="#11a6ea"/>
              <path id="Path_26621-2" data-name="Path 26621" d="M.468,4.968A12.029,12.029,0,0,1,4.72.161,1.4,1.4,0,0,1,6.683,1.867C6.258,3.278,1.356,6.042,1.356,6.042s-1.039.6-1.261.333S.061,5.843.468,4.968Z" transform="translate(115.85 19.758) rotate(-8)" fill="#11a6ea"/>
              <path id="Path_26623-2" data-name="Path 26623" d="M.468,4.968A12.029,12.029,0,0,1,4.72.161,1.4,1.4,0,0,1,6.683,1.867C6.258,3.278,1.356,6.042,1.356,6.042s-1.039.6-1.261.333S.061,5.843.468,4.968Z" transform="translate(19.886 38.608) rotate(-101.007)" fill="#11a6ea"/>
              <path id="Path_26624-2" data-name="Path 26624" d="M.468,4.968A12.029,12.029,0,0,1,4.72.161,1.4,1.4,0,0,1,6.683,1.867C6.258,3.278,1.356,6.042,1.356,6.042s-1.039.6-1.261.333S.061,5.843.468,4.968Z" transform="translate(9.099 90.312) rotate(-144.975)" fill="#11a6ea"/>
              <ellipse id="Ellipse_460-2" data-name="Ellipse 460" cx="1.939" cy="0.776" rx="1.939" ry="0.776" transform="matrix(0.755, 0.656, -0.656, 0.755, 111.718, 29.872)" fill="#11a6ea"/>
              <ellipse id="Ellipse_461-2" data-name="Ellipse 461" cx="1.939" cy="0.776" rx="1.939" ry="0.776" transform="translate(68.208 19.182) rotate(-4)" fill="#11a6ea"/>
              <ellipse id="Ellipse_462-2" data-name="Ellipse 462" cx="1.939" cy="0.776" rx="1.939" ry="0.776" transform="matrix(0.616, -0.788, 0.788, 0.616, 30.047, 42.515)" fill="#11a6ea"/>
              <ellipse id="Ellipse_463-2" data-name="Ellipse 463" cx="1.939" cy="0.776" rx="1.939" ry="0.776" transform="translate(19.123 86.064) rotate(-96)" fill="#11a6ea"/>
              <path id="Path_26622-2" data-name="Path 26622" d="M.468,4.968A12.029,12.029,0,0,1,4.72.161,1.4,1.4,0,0,1,6.683,1.867C6.258,3.278,1.356,6.042,1.356,6.042s-1.039.6-1.261.333S.061,5.843.468,4.968Z" transform="matrix(0.602, -0.799, 0.799, 0.602, 63.978, 9.108)" fill="#11a6ea"/>
            </g>
            <g id="Group_18709-2" data-name="Group 18709" transform="translate(135.816 18.956)">
              <path id="Path_26535-2" data-name="Path 26535" d="M1683.492-3093.349c.092-.129.171-.165.277-.126a.208.208,0,0,1,.129.205c-.012.116-.082.174-.238.2a.948.948,0,0,0,.566.386.371.371,0,0,0,.42-.238.7.7,0,0,0,.036-.312.058.058,0,0,0-.053-.061.232.232,0,0,1-.188-.2.233.233,0,0,1,.11-.251.238.238,0,0,1,.274.007.244.244,0,0,1,.1.16.246.246,0,0,1-.043.184.337.337,0,0,1-.021.026.074.074,0,0,0-.028.056.079.079,0,0,0,.024.059.646.646,0,0,0,.67.276.67.67,0,0,0,.5-.531c0-.013.011-.028,0-.033s-.024.006-.036.012a.339.339,0,0,1-.4-.045.34.34,0,0,1-.076-.376.312.312,0,0,1,.294-.206c.03,0,.068.007.04-.047a.279.279,0,0,1,.027-.295c.042-.064.093-.124.139-.187a1.24,1.24,0,0,0,.179-.3c0-.01.009-.023.018-.025s.018.013.023.024a1.536,1.536,0,0,0,.259.4.339.339,0,0,1,.08.392c-.022.043.018.033.036.034a.311.311,0,0,1,.312.242.316.316,0,0,1-.092.344.326.326,0,0,1-.356.062c-.026-.011-.05-.024-.079-.038a.189.189,0,0,0,.016.107.642.642,0,0,0,.751.461.648.648,0,0,0,.425-.314c.024-.038,0-.049-.022-.067a.246.246,0,0,1-.005-.348.261.261,0,0,1,.047-.038.232.232,0,0,1,.262,0,.235.235,0,0,1,.109.252.222.222,0,0,1-.171.192.078.078,0,0,0-.055.031.08.08,0,0,0-.018.06v0a.776.776,0,0,0,.02.224.388.388,0,0,0,.208.269.392.392,0,0,0,.34,0,1.036,1.036,0,0,0,.457-.359c-.034-.006-.065-.01-.094-.018a.2.2,0,0,1-.144-.193.2.2,0,0,1,.137-.194.2.2,0,0,1,.234.078c.029.051.045.044.08.009a.572.572,0,0,1,.406-.158c.018,0,.044-.01.051.015s-.016.034-.028.047a3.981,3.981,0,0,0-.6.749,4.159,4.159,0,0,0-.405.838c-.058.165-.033.132-.188.132h-4.011c-.108,0-.109,0-.145-.1a4.1,4.1,0,0,0-.453-.929,4.1,4.1,0,0,0-.542-.667c-.021-.02-.061-.042-.048-.07s.059-.013.089-.011a.583.583,0,0,1,.411.2Zm2.708.568-.022.016-.34.347c-.02.02-.015.036,0,.055l.317.323c.032.033.057.033.09,0,.1-.106.205-.209.31-.312.031-.031.028-.051,0-.079-.109-.108-.215-.218-.323-.327a.05.05,0,0,0-.036-.021Zm.785.126a.362.362,0,0,0-.031.027c-.073.073-.144.147-.22.219-.036.034-.028.059,0,.09.071.069.142.138.21.211.029.031.047.033.077,0,.073-.079.149-.155.225-.231.019-.019.023-.031,0-.052-.081-.08-.161-.162-.241-.243a.311.311,0,0,0-.026-.021Zm-1.285.281a.261.261,0,0,0-.016-.022c-.081-.081-.162-.161-.242-.242-.019-.02-.033-.012-.049,0l-.236.238c-.016.017-.02.031,0,.049l.23.236a.041.041,0,0,0,.025.017.037.037,0,0,0,.029-.006.052.052,0,0,0,.011-.011c.073-.076.148-.15.222-.225a.4.4,0,0,0,.026-.036Zm-1.063.073a.167.167,0,0,0-.05-.062c-.1-.1-.1-.1-.2,0-.061.059-.063.065,0,.122.126.12.076.123.206,0C1684.6-3092.263,1684.62-3092.283,1684.637-3092.3Zm3.283-.146c-.011.009-.026.022-.039.036-.11.11-.109.108,0,.22.036.039.059.042.1,0,.115-.124.116-.127-.018-.237a.052.052,0,0,0-.039-.018Z" transform="translate(-1682.989 3095.013)" fill="#fff"/>
              <path id="Path_26537-2" data-name="Path 26537" d="M1697.3-3057.366h-2.046c-.079,0-.1-.018-.087-.082,0-.025.012-.041.039-.042s.057,0,.084,0h3.3c.255,0,.509,0,.764,0,.033,0,.083-.02.092.042s-.007.085-.09.085H1697.3Z" transform="translate(-1694.096 3060.803)" fill="#fff"/>
              <path id="Path_26538-2" data-name="Path 26538" d="M1725.619-3055.174a.279.279,0,0,1-.1.1.268.268,0,0,1-.1-.106.311.311,0,0,1,.1-.1A.324.324,0,0,1,1725.619-3055.174Z" transform="translate(-1721.677 3058.78)" fill="#fff"/>
              <path id="Path_26539-2" data-name="Path 26539" d="M1707.4-3055.271a.228.228,0,0,1,.1.1.323.323,0,0,1-.1.1.225.225,0,0,1-.1-.1A.289.289,0,0,1,1707.4-3055.271Z" transform="translate(-1705.16 3058.775)" fill="#fff"/>
              <path id="Path_26540-2" data-name="Path 26540" d="M1721.943-3055.16a.251.251,0,0,1-.1.1.3.3,0,0,1-.1-.1.249.249,0,0,1,.1-.1A.3.3,0,0,1,1721.943-3055.16Z" transform="translate(-1718.324 3058.764)" fill="#fff"/>
              <path id="Path_26541-2" data-name="Path 26541" d="M1736.48-3055.06a.224.224,0,0,1-.1-.1.282.282,0,0,1,.1-.1.261.261,0,0,1,.1.094C1736.579-3055.14,1736.5-3055.06,1736.48-3055.06Z" transform="translate(-1731.673 3058.763)" fill="#fff"/>
              <path id="Path_26542-2" data-name="Path 26542" d="M1703.918-3055.058c-.021,0-.1-.072-.1-.1a.211.211,0,0,1,.093-.1.231.231,0,0,1,.1.1.257.257,0,0,1-.1.1Z" transform="translate(-1701.983 3058.76)" fill="#fff"/>
              <path id="Path_26543-2" data-name="Path 26543" d="M1729.206-3055.251a.266.266,0,0,1,.1.1c0,.025-.078.1-.1.1a.227.227,0,0,1-.1-.1A.237.237,0,0,1,1729.206-3055.251Z" transform="translate(-1725.041 3058.756)" fill="#fff"/>
              <path id="Path_26544-2" data-name="Path 26544" d="M1739.961-3055.162a.233.233,0,0,1,.1-.1.307.307,0,0,1,.1.1c0,.022-.081.1-.1.1A.226.226,0,0,1,1739.961-3055.162Z" transform="translate(-1734.938 3058.767)" fill="#fff"/>
              <path id="Path_26545-2" data-name="Path 26545" d="M1696.963-3055.159a.282.282,0,0,1-.093.1c-.02,0-.1-.073-.1-.1a.263.263,0,0,1,.092-.1C1696.876-3055.259,1696.959-3055.179,1696.963-3055.159Z" transform="translate(-1695.551 3058.761)" fill="#fff"/>
              <path id="Path_26546-2" data-name="Path 26546" d="M1700.45-3055.261a.248.248,0,0,1,.1.1.215.215,0,0,1-.093.1c-.022,0-.1-.075-.1-.1A.3.3,0,0,1,1700.45-3055.261Z" transform="translate(-1698.822 3058.766)" fill="#fff"/>
              <path id="Path_26547-2" data-name="Path 26547" d="M1718.193-3055.261a.29.29,0,0,1,.1.1c0,.023-.081.1-.1.1a.228.228,0,0,1-.094-.1A.264.264,0,0,1,1718.193-3055.261Z" transform="translate(-1714.999 3058.766)" fill="#fff"/>
              <path id="Path_26548-2" data-name="Path 26548" d="M1733.169-3055.271a.312.312,0,0,1,.1.1.3.3,0,0,1-.1.1.29.29,0,0,1-.1-.1A.324.324,0,0,1,1733.169-3055.271Z" transform="translate(-1728.652 3058.775)" fill="#fff"/>
              <path id="Path_26549-2" data-name="Path 26549" d="M1714.531-3055.056a.223.223,0,0,1-.095-.1.223.223,0,0,1,.095-.1.233.233,0,0,1,.1.1A.241.241,0,0,1,1714.531-3055.056Z" transform="translate(-1711.663 3058.759)" fill="#fff"/>
              <path id="Path_26550-2" data-name="Path 26550" d="M1710.995-3055.251a.263.263,0,0,1,.1.1.253.253,0,0,1-.093.1c-.02,0-.1-.078-.1-.1a.266.266,0,0,1,.1-.1Z" transform="translate(-1708.438 3058.757)" fill="#fff"/>
              <path id="Path_26551-2" data-name="Path 26551" d="M1697.368-3051.949a3.35,3.35,0,0,1,1.685.5,3.566,3.566,0,0,1,.522.384c0-.061,0-.134,0-.22,0-.13,0-.262,0-.395,0-.823,0-.823-.111-.823l-4.037,0c-.121,0-.121,0-.123.932v.225a3.446,3.446,0,0,1,.752-.388,3.557,3.557,0,0,1,1.31-.213Z" transform="translate(-1694.218 3056.252)" fill="#fff"/>
            </g>
          </g>
        </g>
      </g>
    </g>
    <text id="THE_Royal_Merchants" data-name="THE Royal Merchants" transform="translate(-1379 -13671.13)" fill="#0056a9" font-size="20" font-family="Stencil"><tspan x="-206" y="0">THE Royal Merchants Shipping line llc</tspan></text>
  </g>
</svg>
